<?xml version="1.0" encoding="utf-8" standalone="no"?>
<!DOCTYPE svg PUBLIC "-//W3C//DTD SVG 1.1//EN"
  "http://www.w3.org/Graphics/SVG/1.1/DTD/svg11.dtd">
<svg height="141.732288pt" version="1.1" viewBox="0 0 255.118118 141.732288" width="255.118118pt" xmlns="http://www.w3.org/2000/svg" xmlns:xlink="http://www.w3.org/1999/xlink">
 <metadata>
  <rdf:RDF xmlns:cc="http://creativecommons.org/ns#" xmlns:dc="http://purl.org/dc/elements/1.1/" xmlns:rdf="http://www.w3.org/1999/02/22-rdf-syntax-ns#">
   <cc:Work>
    <dc:type rdf:resource="http://purl.org/dc/dcmitype/StillImage"/>
    <dc:date>2022-12-02T11:04:02.112329</dc:date>
    <dc:format>image/svg+xml</dc:format>
    <dc:creator>
     <cc:Agent>
      <dc:title>Matplotlib v3.4.3, https://matplotlib.org/</dc:title>
     </cc:Agent>
    </dc:creator>
   </cc:Work>
  </rdf:RDF>
 </metadata>
 <defs>
  <style type="text/css">*{stroke-linecap:butt;stroke-linejoin:round;}</style>
 </defs>
 <g id="figure_1">
  <g id="patch_1">
   <path d="M 0 141.732288 
L 255.118118 141.732288 
L 255.118118 0 
L 0 0 
z
" style="fill:#ffffff;"/>
  </g>
  <g id="axes_1">
   <g id="patch_2">
    <path d="M 39.937823 107.192288 
L 242.158118 107.192288 
L 242.158118 24.75375 
L 39.937823 24.75375 
z
" style="fill:#eaeaf2;"/>
   </g>
   <g id="matplotlib.axis_1">
    <g id="xtick_1">
     <g id="line2d_1">
      <path clip-path="url(#p079b2a0009)" d="M 44.415894 107.192288 
L 44.415894 24.75375 
" style="fill:none;stroke:#ffffff;stroke-linecap:round;"/>
     </g>
     <g id="text_1">
      <!-- 0 -->
      <g style="fill:#262626;" transform="translate(43.02566 120.271194)scale(0.05 -0.05)">
       <defs>
        <path d="M 266 2259 
Q 266 3072 433 3567 
Q 600 4063 929 4331 
Q 1259 4600 1759 4600 
Q 2128 4600 2406 4451 
Q 2684 4303 2865 4023 
Q 3047 3744 3150 3342 
Q 3253 2941 3253 2259 
Q 3253 1453 3087 958 
Q 2922 463 2592 192 
Q 2263 -78 1759 -78 
Q 1097 -78 719 397 
Q 266 969 266 2259 
z
M 844 2259 
Q 844 1131 1108 757 
Q 1372 384 1759 384 
Q 2147 384 2411 759 
Q 2675 1134 2675 2259 
Q 2675 3391 2411 3762 
Q 2147 4134 1753 4134 
Q 1366 4134 1134 3806 
Q 844 3388 844 2259 
z
" id="ArialMT-30" transform="scale(0.015625)"/>
       </defs>
       <use xlink:href="#ArialMT-30"/>
      </g>
     </g>
    </g>
    <g id="xtick_2">
     <g id="line2d_2">
      <path clip-path="url(#p079b2a0009)" d="M 67.984693 107.192288 
L 67.984693 24.75375 
" style="fill:none;stroke:#ffffff;stroke-linecap:round;"/>
     </g>
     <g id="text_2">
      <!-- 25 -->
      <g style="fill:#262626;" transform="translate(65.204225 120.271194)scale(0.05 -0.05)">
       <defs>
        <path d="M 3222 541 
L 3222 0 
L 194 0 
Q 188 203 259 391 
Q 375 700 629 1000 
Q 884 1300 1366 1694 
Q 2113 2306 2375 2664 
Q 2638 3022 2638 3341 
Q 2638 3675 2398 3904 
Q 2159 4134 1775 4134 
Q 1369 4134 1125 3890 
Q 881 3647 878 3216 
L 300 3275 
Q 359 3922 746 4261 
Q 1134 4600 1788 4600 
Q 2447 4600 2831 4234 
Q 3216 3869 3216 3328 
Q 3216 3053 3103 2787 
Q 2991 2522 2730 2228 
Q 2469 1934 1863 1422 
Q 1356 997 1212 845 
Q 1069 694 975 541 
L 3222 541 
z
" id="ArialMT-32" transform="scale(0.015625)"/>
        <path d="M 266 1200 
L 856 1250 
Q 922 819 1161 601 
Q 1400 384 1738 384 
Q 2144 384 2425 690 
Q 2706 997 2706 1503 
Q 2706 1984 2436 2262 
Q 2166 2541 1728 2541 
Q 1456 2541 1237 2417 
Q 1019 2294 894 2097 
L 366 2166 
L 809 4519 
L 3088 4519 
L 3088 3981 
L 1259 3981 
L 1013 2750 
Q 1425 3038 1878 3038 
Q 2478 3038 2890 2622 
Q 3303 2206 3303 1553 
Q 3303 931 2941 478 
Q 2500 -78 1738 -78 
Q 1113 -78 717 272 
Q 322 622 266 1200 
z
" id="ArialMT-35" transform="scale(0.015625)"/>
       </defs>
       <use xlink:href="#ArialMT-32"/>
       <use x="55.615234" xlink:href="#ArialMT-35"/>
      </g>
     </g>
    </g>
    <g id="xtick_3">
     <g id="line2d_3">
      <path clip-path="url(#p079b2a0009)" d="M 91.553492 107.192288 
L 91.553492 24.75375 
" style="fill:none;stroke:#ffffff;stroke-linecap:round;"/>
     </g>
     <g id="text_3">
      <!-- 50 -->
      <g style="fill:#262626;" transform="translate(88.773024 120.271194)scale(0.05 -0.05)">
       <use xlink:href="#ArialMT-35"/>
       <use x="55.615234" xlink:href="#ArialMT-30"/>
      </g>
     </g>
    </g>
    <g id="xtick_4">
     <g id="line2d_4">
      <path clip-path="url(#p079b2a0009)" d="M 115.122291 107.192288 
L 115.122291 24.75375 
" style="fill:none;stroke:#ffffff;stroke-linecap:round;"/>
     </g>
     <g id="text_4">
      <!-- 75 -->
      <g style="fill:#262626;" transform="translate(112.341823 120.271194)scale(0.05 -0.05)">
       <defs>
        <path d="M 303 3981 
L 303 4522 
L 3269 4522 
L 3269 4084 
Q 2831 3619 2401 2847 
Q 1972 2075 1738 1259 
Q 1569 684 1522 0 
L 944 0 
Q 953 541 1156 1306 
Q 1359 2072 1739 2783 
Q 2119 3494 2547 3981 
L 303 3981 
z
" id="ArialMT-37" transform="scale(0.015625)"/>
       </defs>
       <use xlink:href="#ArialMT-37"/>
       <use x="55.615234" xlink:href="#ArialMT-35"/>
      </g>
     </g>
    </g>
    <g id="xtick_5">
     <g id="line2d_5">
      <path clip-path="url(#p079b2a0009)" d="M 138.691091 107.192288 
L 138.691091 24.75375 
" style="fill:none;stroke:#ffffff;stroke-linecap:round;"/>
     </g>
     <g id="text_5">
      <!-- 100 -->
      <g style="fill:#262626;" transform="translate(134.520387 120.271194)scale(0.05 -0.05)">
       <defs>
        <path d="M 2384 0 
L 1822 0 
L 1822 3584 
Q 1619 3391 1289 3197 
Q 959 3003 697 2906 
L 697 3450 
Q 1169 3672 1522 3987 
Q 1875 4303 2022 4600 
L 2384 4600 
L 2384 0 
z
" id="ArialMT-31" transform="scale(0.015625)"/>
       </defs>
       <use xlink:href="#ArialMT-31"/>
       <use x="55.615234" xlink:href="#ArialMT-30"/>
       <use x="111.230469" xlink:href="#ArialMT-30"/>
      </g>
     </g>
    </g>
    <g id="xtick_6">
     <g id="line2d_6">
      <path clip-path="url(#p079b2a0009)" d="M 162.25989 107.192288 
L 162.25989 24.75375 
" style="fill:none;stroke:#ffffff;stroke-linecap:round;"/>
     </g>
     <g id="text_6">
      <!-- 125 -->
      <g style="fill:#262626;" transform="translate(158.089186 120.271194)scale(0.05 -0.05)">
       <use xlink:href="#ArialMT-31"/>
       <use x="55.615234" xlink:href="#ArialMT-32"/>
       <use x="111.230469" xlink:href="#ArialMT-35"/>
      </g>
     </g>
    </g>
    <g id="xtick_7">
     <g id="line2d_7">
      <path clip-path="url(#p079b2a0009)" d="M 185.828689 107.192288 
L 185.828689 24.75375 
" style="fill:none;stroke:#ffffff;stroke-linecap:round;"/>
     </g>
     <g id="text_7">
      <!-- 150 -->
      <g style="fill:#262626;" transform="translate(181.657986 120.271194)scale(0.05 -0.05)">
       <use xlink:href="#ArialMT-31"/>
       <use x="55.615234" xlink:href="#ArialMT-35"/>
       <use x="111.230469" xlink:href="#ArialMT-30"/>
      </g>
     </g>
    </g>
    <g id="xtick_8">
     <g id="line2d_8">
      <path clip-path="url(#p079b2a0009)" d="M 209.397488 107.192288 
L 209.397488 24.75375 
" style="fill:none;stroke:#ffffff;stroke-linecap:round;"/>
     </g>
     <g id="text_8">
      <!-- 175 -->
      <g style="fill:#262626;" transform="translate(205.226785 120.271194)scale(0.05 -0.05)">
       <use xlink:href="#ArialMT-31"/>
       <use x="55.615234" xlink:href="#ArialMT-37"/>
       <use x="111.230469" xlink:href="#ArialMT-35"/>
      </g>
     </g>
    </g>
    <g id="xtick_9">
     <g id="line2d_9">
      <path clip-path="url(#p079b2a0009)" d="M 232.966287 107.192288 
L 232.966287 24.75375 
" style="fill:none;stroke:#ffffff;stroke-linecap:round;"/>
     </g>
     <g id="text_9">
      <!-- 200 -->
      <g style="fill:#262626;" transform="translate(228.795584 120.271194)scale(0.05 -0.05)">
       <use xlink:href="#ArialMT-32"/>
       <use x="55.615234" xlink:href="#ArialMT-30"/>
       <use x="111.230469" xlink:href="#ArialMT-30"/>
      </g>
     </g>
    </g>
    <g id="text_10">
     <!-- Dimension -->
     <g style="fill:#262626;" transform="translate(126.876252 127.559632)scale(0.06 -0.06)">
      <defs>
       <path d="M 494 0 
L 494 4581 
L 2072 4581 
Q 2606 4581 2888 4516 
Q 3281 4425 3559 4188 
Q 3922 3881 4101 3404 
Q 4281 2928 4281 2316 
Q 4281 1794 4159 1391 
Q 4038 988 3847 723 
Q 3656 459 3429 307 
Q 3203 156 2883 78 
Q 2563 0 2147 0 
L 494 0 
z
M 1100 541 
L 2078 541 
Q 2531 541 2789 625 
Q 3047 709 3200 863 
Q 3416 1078 3536 1442 
Q 3656 1806 3656 2325 
Q 3656 3044 3420 3430 
Q 3184 3816 2847 3947 
Q 2603 4041 2063 4041 
L 1100 4041 
L 1100 541 
z
" id="ArialMT-44" transform="scale(0.015625)"/>
       <path d="M 425 3934 
L 425 4581 
L 988 4581 
L 988 3934 
L 425 3934 
z
M 425 0 
L 425 3319 
L 988 3319 
L 988 0 
L 425 0 
z
" id="ArialMT-69" transform="scale(0.015625)"/>
       <path d="M 422 0 
L 422 3319 
L 925 3319 
L 925 2853 
Q 1081 3097 1340 3245 
Q 1600 3394 1931 3394 
Q 2300 3394 2536 3241 
Q 2772 3088 2869 2813 
Q 3263 3394 3894 3394 
Q 4388 3394 4653 3120 
Q 4919 2847 4919 2278 
L 4919 0 
L 4359 0 
L 4359 2091 
Q 4359 2428 4304 2576 
Q 4250 2725 4106 2815 
Q 3963 2906 3769 2906 
Q 3419 2906 3187 2673 
Q 2956 2441 2956 1928 
L 2956 0 
L 2394 0 
L 2394 2156 
Q 2394 2531 2256 2718 
Q 2119 2906 1806 2906 
Q 1569 2906 1367 2781 
Q 1166 2656 1075 2415 
Q 984 2175 984 1722 
L 984 0 
L 422 0 
z
" id="ArialMT-6d" transform="scale(0.015625)"/>
       <path d="M 2694 1069 
L 3275 997 
Q 3138 488 2766 206 
Q 2394 -75 1816 -75 
Q 1088 -75 661 373 
Q 234 822 234 1631 
Q 234 2469 665 2931 
Q 1097 3394 1784 3394 
Q 2450 3394 2872 2941 
Q 3294 2488 3294 1666 
Q 3294 1616 3291 1516 
L 816 1516 
Q 847 969 1125 678 
Q 1403 388 1819 388 
Q 2128 388 2347 550 
Q 2566 713 2694 1069 
z
M 847 1978 
L 2700 1978 
Q 2663 2397 2488 2606 
Q 2219 2931 1791 2931 
Q 1403 2931 1139 2672 
Q 875 2413 847 1978 
z
" id="ArialMT-65" transform="scale(0.015625)"/>
       <path d="M 422 0 
L 422 3319 
L 928 3319 
L 928 2847 
Q 1294 3394 1984 3394 
Q 2284 3394 2536 3286 
Q 2788 3178 2913 3003 
Q 3038 2828 3088 2588 
Q 3119 2431 3119 2041 
L 3119 0 
L 2556 0 
L 2556 2019 
Q 2556 2363 2490 2533 
Q 2425 2703 2258 2804 
Q 2091 2906 1866 2906 
Q 1506 2906 1245 2678 
Q 984 2450 984 1813 
L 984 0 
L 422 0 
z
" id="ArialMT-6e" transform="scale(0.015625)"/>
       <path d="M 197 991 
L 753 1078 
Q 800 744 1014 566 
Q 1228 388 1613 388 
Q 2000 388 2187 545 
Q 2375 703 2375 916 
Q 2375 1106 2209 1216 
Q 2094 1291 1634 1406 
Q 1016 1563 777 1677 
Q 538 1791 414 1992 
Q 291 2194 291 2438 
Q 291 2659 392 2848 
Q 494 3038 669 3163 
Q 800 3259 1026 3326 
Q 1253 3394 1513 3394 
Q 1903 3394 2198 3281 
Q 2494 3169 2634 2976 
Q 2775 2784 2828 2463 
L 2278 2388 
Q 2241 2644 2061 2787 
Q 1881 2931 1553 2931 
Q 1166 2931 1000 2803 
Q 834 2675 834 2503 
Q 834 2394 903 2306 
Q 972 2216 1119 2156 
Q 1203 2125 1616 2013 
Q 2213 1853 2448 1751 
Q 2684 1650 2818 1456 
Q 2953 1263 2953 975 
Q 2953 694 2789 445 
Q 2625 197 2315 61 
Q 2006 -75 1616 -75 
Q 969 -75 630 194 
Q 291 463 197 991 
z
" id="ArialMT-73" transform="scale(0.015625)"/>
       <path d="M 213 1659 
Q 213 2581 725 3025 
Q 1153 3394 1769 3394 
Q 2453 3394 2887 2945 
Q 3322 2497 3322 1706 
Q 3322 1066 3130 698 
Q 2938 331 2570 128 
Q 2203 -75 1769 -75 
Q 1072 -75 642 372 
Q 213 819 213 1659 
z
M 791 1659 
Q 791 1022 1069 705 
Q 1347 388 1769 388 
Q 2188 388 2466 706 
Q 2744 1025 2744 1678 
Q 2744 2294 2464 2611 
Q 2184 2928 1769 2928 
Q 1347 2928 1069 2612 
Q 791 2297 791 1659 
z
" id="ArialMT-6f" transform="scale(0.015625)"/>
      </defs>
      <use xlink:href="#ArialMT-44"/>
      <use x="72.216797" xlink:href="#ArialMT-69"/>
      <use x="94.433594" xlink:href="#ArialMT-6d"/>
      <use x="177.734375" xlink:href="#ArialMT-65"/>
      <use x="233.349609" xlink:href="#ArialMT-6e"/>
      <use x="288.964844" xlink:href="#ArialMT-73"/>
      <use x="338.964844" xlink:href="#ArialMT-69"/>
      <use x="361.181641" xlink:href="#ArialMT-6f"/>
      <use x="416.796875" xlink:href="#ArialMT-6e"/>
     </g>
    </g>
   </g>
   <g id="matplotlib.axis_2">
    <g id="ytick_1">
     <g id="line2d_10">
      <path clip-path="url(#p079b2a0009)" d="M 39.937823 96.88665 
L 242.158118 96.88665 
" style="fill:none;stroke:#ffffff;stroke-linecap:round;"/>
     </g>
     <g id="text_11">
      <!-- $\mathdefault{10^{-3}}$ -->
      <g style="fill:#262626;" transform="translate(20.537823 99.464775)scale(0.05 -0.05)">
       <defs>
        <path d="M 3381 1997 
L 356 1997 
L 356 2522 
L 3381 2522 
L 3381 1997 
z
" id="ArialMT-2212" transform="scale(0.015625)"/>
        <path d="M 269 1209 
L 831 1284 
Q 928 806 1161 595 
Q 1394 384 1728 384 
Q 2125 384 2398 659 
Q 2672 934 2672 1341 
Q 2672 1728 2419 1979 
Q 2166 2231 1775 2231 
Q 1616 2231 1378 2169 
L 1441 2663 
Q 1497 2656 1531 2656 
Q 1891 2656 2178 2843 
Q 2466 3031 2466 3422 
Q 2466 3731 2256 3934 
Q 2047 4138 1716 4138 
Q 1388 4138 1169 3931 
Q 950 3725 888 3313 
L 325 3413 
Q 428 3978 793 4289 
Q 1159 4600 1703 4600 
Q 2078 4600 2393 4439 
Q 2709 4278 2876 4000 
Q 3044 3722 3044 3409 
Q 3044 3113 2884 2869 
Q 2725 2625 2413 2481 
Q 2819 2388 3044 2092 
Q 3269 1797 3269 1353 
Q 3269 753 2831 336 
Q 2394 -81 1725 -81 
Q 1122 -81 723 278 
Q 325 638 269 1209 
z
" id="ArialMT-33" transform="scale(0.015625)"/>
       </defs>
       <use transform="translate(0 0.99375)" xlink:href="#ArialMT-31"/>
       <use transform="translate(55.615234 0.99375)" xlink:href="#ArialMT-30"/>
       <use transform="translate(112.972813 70.6875)scale(0.7)" xlink:href="#ArialMT-2212"/>
       <use transform="translate(153.851719 70.6875)scale(0.7)" xlink:href="#ArialMT-33"/>
      </g>
     </g>
    </g>
    <g id="ytick_2">
     <g id="line2d_11">
      <path clip-path="url(#p079b2a0009)" d="M 39.937823 84.103284 
L 242.158118 84.103284 
" style="fill:none;stroke:#ffffff;stroke-linecap:round;"/>
     </g>
     <g id="text_12">
      <!-- $\mathdefault{10^{-2}}$ -->
      <g style="fill:#262626;" transform="translate(20.537823 86.681409)scale(0.05 -0.05)">
       <use transform="translate(0 0.99375)" xlink:href="#ArialMT-31"/>
       <use transform="translate(55.615234 0.99375)" xlink:href="#ArialMT-30"/>
       <use transform="translate(112.972813 70.6875)scale(0.7)" xlink:href="#ArialMT-2212"/>
       <use transform="translate(153.851719 70.6875)scale(0.7)" xlink:href="#ArialMT-32"/>
      </g>
     </g>
    </g>
    <g id="ytick_3">
     <g id="line2d_12">
      <path clip-path="url(#p079b2a0009)" d="M 39.937823 71.319919 
L 242.158118 71.319919 
" style="fill:none;stroke:#ffffff;stroke-linecap:round;"/>
     </g>
     <g id="text_13">
      <!-- $\mathdefault{10^{-1}}$ -->
      <g style="fill:#262626;" transform="translate(20.537823 73.898044)scale(0.05 -0.05)">
       <use transform="translate(0 0.99375)" xlink:href="#ArialMT-31"/>
       <use transform="translate(55.615234 0.99375)" xlink:href="#ArialMT-30"/>
       <use transform="translate(112.972813 70.6875)scale(0.7)" xlink:href="#ArialMT-2212"/>
       <use transform="translate(153.851719 70.6875)scale(0.7)" xlink:href="#ArialMT-31"/>
      </g>
     </g>
    </g>
    <g id="ytick_4">
     <g id="line2d_13">
      <path clip-path="url(#p079b2a0009)" d="M 39.937823 58.536554 
L 242.158118 58.536554 
" style="fill:none;stroke:#ffffff;stroke-linecap:round;"/>
     </g>
     <g id="text_14">
      <!-- $\mathdefault{10^{0}}$ -->
      <g style="fill:#262626;" transform="translate(22.587823 61.114679)scale(0.05 -0.05)">
       <use transform="translate(0 0.99375)" xlink:href="#ArialMT-31"/>
       <use transform="translate(55.615234 0.99375)" xlink:href="#ArialMT-30"/>
       <use transform="translate(112.972813 70.6875)scale(0.7)" xlink:href="#ArialMT-30"/>
      </g>
     </g>
    </g>
    <g id="ytick_5">
     <g id="line2d_14">
      <path clip-path="url(#p079b2a0009)" d="M 39.937823 45.753188 
L 242.158118 45.753188 
" style="fill:none;stroke:#ffffff;stroke-linecap:round;"/>
     </g>
     <g id="text_15">
      <!-- $\mathdefault{10^{1}}$ -->
      <g style="fill:#262626;" transform="translate(22.587823 48.331313)scale(0.05 -0.05)">
       <use transform="translate(0 0.99375)" xlink:href="#ArialMT-31"/>
       <use transform="translate(55.615234 0.99375)" xlink:href="#ArialMT-30"/>
       <use transform="translate(112.972813 70.6875)scale(0.7)" xlink:href="#ArialMT-31"/>
      </g>
     </g>
    </g>
    <g id="ytick_6">
     <g id="line2d_15">
      <path clip-path="url(#p079b2a0009)" d="M 39.937823 32.969823 
L 242.158118 32.969823 
" style="fill:none;stroke:#ffffff;stroke-linecap:round;"/>
     </g>
     <g id="text_16">
      <!-- $\mathdefault{10^{2}}$ -->
      <g style="fill:#262626;" transform="translate(22.587823 35.547948)scale(0.05 -0.05)">
       <use transform="translate(0 0.99375)" xlink:href="#ArialMT-31"/>
       <use transform="translate(55.615234 0.99375)" xlink:href="#ArialMT-30"/>
       <use transform="translate(112.972813 70.6875)scale(0.7)" xlink:href="#ArialMT-32"/>
      </g>
     </g>
    </g>
    <g id="ytick_7"/>
    <g id="ytick_8"/>
    <g id="ytick_9"/>
    <g id="ytick_10"/>
    <g id="ytick_11"/>
    <g id="ytick_12"/>
    <g id="ytick_13"/>
    <g id="ytick_14"/>
    <g id="ytick_15"/>
    <g id="ytick_16"/>
    <g id="ytick_17"/>
    <g id="ytick_18"/>
    <g id="ytick_19"/>
    <g id="ytick_20"/>
    <g id="ytick_21"/>
    <g id="ytick_22"/>
    <g id="ytick_23"/>
    <g id="ytick_24"/>
    <g id="ytick_25"/>
    <g id="ytick_26"/>
    <g id="ytick_27"/>
    <g id="ytick_28"/>
    <g id="ytick_29"/>
    <g id="ytick_30"/>
    <g id="ytick_31"/>
    <g id="ytick_32"/>
    <g id="ytick_33"/>
    <g id="ytick_34"/>
    <g id="ytick_35"/>
    <g id="ytick_36"/>
    <g id="ytick_37"/>
    <g id="ytick_38"/>
    <g id="ytick_39"/>
    <g id="ytick_40"/>
    <g id="ytick_41"/>
    <g id="ytick_42"/>
    <g id="ytick_43"/>
    <g id="ytick_44"/>
    <g id="ytick_45"/>
    <g id="ytick_46"/>
    <g id="ytick_47"/>
    <g id="ytick_48"/>
    <g id="ytick_49"/>
    <g id="ytick_50"/>
    <g id="ytick_51"/>
    <g id="ytick_52"/>
    <g id="ytick_53"/>
    <g id="ytick_54"/>
    <g id="ytick_55"/>
    <g id="ytick_56"/>
    <g id="ytick_57"/>
    <g id="text_17">
     <!-- Runtime (s) -->
     <g style="fill:#262626;" transform="translate(17.27501 81.474581)rotate(-90)scale(0.06 -0.06)">
      <defs>
       <path d="M 503 0 
L 503 4581 
L 2534 4581 
Q 3147 4581 3465 4457 
Q 3784 4334 3975 4021 
Q 4166 3709 4166 3331 
Q 4166 2844 3850 2509 
Q 3534 2175 2875 2084 
Q 3116 1969 3241 1856 
Q 3506 1613 3744 1247 
L 4541 0 
L 3778 0 
L 3172 953 
Q 2906 1366 2734 1584 
Q 2563 1803 2427 1890 
Q 2291 1978 2150 2013 
Q 2047 2034 1813 2034 
L 1109 2034 
L 1109 0 
L 503 0 
z
M 1109 2559 
L 2413 2559 
Q 2828 2559 3062 2645 
Q 3297 2731 3419 2920 
Q 3541 3109 3541 3331 
Q 3541 3656 3305 3865 
Q 3069 4075 2559 4075 
L 1109 4075 
L 1109 2559 
z
" id="ArialMT-52" transform="scale(0.015625)"/>
       <path d="M 2597 0 
L 2597 488 
Q 2209 -75 1544 -75 
Q 1250 -75 995 37 
Q 741 150 617 320 
Q 494 491 444 738 
Q 409 903 409 1263 
L 409 3319 
L 972 3319 
L 972 1478 
Q 972 1038 1006 884 
Q 1059 663 1231 536 
Q 1403 409 1656 409 
Q 1909 409 2131 539 
Q 2353 669 2445 892 
Q 2538 1116 2538 1541 
L 2538 3319 
L 3100 3319 
L 3100 0 
L 2597 0 
z
" id="ArialMT-75" transform="scale(0.015625)"/>
       <path d="M 1650 503 
L 1731 6 
Q 1494 -44 1306 -44 
Q 1000 -44 831 53 
Q 663 150 594 308 
Q 525 466 525 972 
L 525 2881 
L 113 2881 
L 113 3319 
L 525 3319 
L 525 4141 
L 1084 4478 
L 1084 3319 
L 1650 3319 
L 1650 2881 
L 1084 2881 
L 1084 941 
Q 1084 700 1114 631 
Q 1144 563 1211 522 
Q 1278 481 1403 481 
Q 1497 481 1650 503 
z
" id="ArialMT-74" transform="scale(0.015625)"/>
       <path id="ArialMT-20" transform="scale(0.015625)"/>
       <path d="M 1497 -1347 
Q 1031 -759 709 28 
Q 388 816 388 1659 
Q 388 2403 628 3084 
Q 909 3875 1497 4659 
L 1900 4659 
Q 1522 4009 1400 3731 
Q 1209 3300 1100 2831 
Q 966 2247 966 1656 
Q 966 153 1900 -1347 
L 1497 -1347 
z
" id="ArialMT-28" transform="scale(0.015625)"/>
       <path d="M 791 -1347 
L 388 -1347 
Q 1322 153 1322 1656 
Q 1322 2244 1188 2822 
Q 1081 3291 891 3722 
Q 769 4003 388 4659 
L 791 4659 
Q 1378 3875 1659 3084 
Q 1900 2403 1900 1659 
Q 1900 816 1576 28 
Q 1253 -759 791 -1347 
z
" id="ArialMT-29" transform="scale(0.015625)"/>
      </defs>
      <use xlink:href="#ArialMT-52"/>
      <use x="72.216797" xlink:href="#ArialMT-75"/>
      <use x="127.832031" xlink:href="#ArialMT-6e"/>
      <use x="183.447266" xlink:href="#ArialMT-74"/>
      <use x="211.230469" xlink:href="#ArialMT-69"/>
      <use x="233.447266" xlink:href="#ArialMT-6d"/>
      <use x="316.748047" xlink:href="#ArialMT-65"/>
      <use x="372.363281" xlink:href="#ArialMT-20"/>
      <use x="400.146484" xlink:href="#ArialMT-28"/>
      <use x="433.447266" xlink:href="#ArialMT-73"/>
      <use x="483.447266" xlink:href="#ArialMT-29"/>
     </g>
    </g>
   </g>
   <g id="line2d_16">
    <path clip-path="url(#p079b2a0009)" d="M 49.129654 103.445082 
L 53.843414 98.857622 
L 58.557174 96.608723 
L 63.270934 94.325714 
L 67.984693 94.282016 
L 72.698453 90.596218 
L 77.412213 89.607053 
L 82.125973 85.733779 
L 86.839733 88.730064 
L 91.553492 82.20173 
L 96.267252 84.526432 
L 100.981012 86.631279 
L 105.694772 84.051746 
L 110.408532 83.982411 
L 115.122291 83.136255 
L 119.836051 80.649237 
L 124.549811 81.607913 
L 129.263571 80.442802 
L 133.977331 81.667749 
L 138.691091 78.444296 
L 143.40485 79.955912 
L 148.11861 80.044871 
L 152.83237 81.645901 
L 157.54613 77.920291 
L 162.25989 79.31808 
L 166.973649 79.380969 
L 171.687409 79.293355 
L 176.401169 79.38629 
L 181.114929 79.146853 
L 185.828689 78.782196 
L 190.542448 77.857501 
L 195.256208 76.450897 
L 199.969968 77.870647 
L 204.683728 78.772793 
L 209.397488 78.422435 
L 214.111248 76.200092 
L 218.825007 78.916523 
L 223.538767 78.135994 
L 228.252527 77.462204 
L 232.966287 76.872022 
" style="fill:none;stroke:#4c72b0;stroke-linecap:round;stroke-width:1.5;"/>
    <defs>
     <path d="M 0 1 
C 0.265203 1 0.51958 0.894634 0.707107 0.707107 
C 0.894634 0.51958 1 0.265203 1 0 
C 1 -0.265203 0.894634 -0.51958 0.707107 -0.707107 
C 0.51958 -0.894634 0.265203 -1 0 -1 
C -0.265203 -1 -0.51958 -0.894634 -0.707107 -0.707107 
C -0.894634 -0.51958 -1 -0.265203 -1 0 
C -1 0.265203 -0.894634 0.51958 -0.707107 0.707107 
C -0.51958 0.894634 -0.265203 1 0 1 
z
" id="mf65b667cb8" style="stroke:#4c72b0;"/>
    </defs>
    <g clip-path="url(#p079b2a0009)">
     <use style="fill:#4c72b0;stroke:#4c72b0;" x="49.129654" xlink:href="#mf65b667cb8" y="103.445082"/>
     <use style="fill:#4c72b0;stroke:#4c72b0;" x="53.843414" xlink:href="#mf65b667cb8" y="98.857622"/>
     <use style="fill:#4c72b0;stroke:#4c72b0;" x="58.557174" xlink:href="#mf65b667cb8" y="96.608723"/>
     <use style="fill:#4c72b0;stroke:#4c72b0;" x="63.270934" xlink:href="#mf65b667cb8" y="94.325714"/>
     <use style="fill:#4c72b0;stroke:#4c72b0;" x="67.984693" xlink:href="#mf65b667cb8" y="94.282016"/>
     <use style="fill:#4c72b0;stroke:#4c72b0;" x="72.698453" xlink:href="#mf65b667cb8" y="90.596218"/>
     <use style="fill:#4c72b0;stroke:#4c72b0;" x="77.412213" xlink:href="#mf65b667cb8" y="89.607053"/>
     <use style="fill:#4c72b0;stroke:#4c72b0;" x="82.125973" xlink:href="#mf65b667cb8" y="85.733779"/>
     <use style="fill:#4c72b0;stroke:#4c72b0;" x="86.839733" xlink:href="#mf65b667cb8" y="88.730064"/>
     <use style="fill:#4c72b0;stroke:#4c72b0;" x="91.553492" xlink:href="#mf65b667cb8" y="82.20173"/>
     <use style="fill:#4c72b0;stroke:#4c72b0;" x="96.267252" xlink:href="#mf65b667cb8" y="84.526432"/>
     <use style="fill:#4c72b0;stroke:#4c72b0;" x="100.981012" xlink:href="#mf65b667cb8" y="86.631279"/>
     <use style="fill:#4c72b0;stroke:#4c72b0;" x="105.694772" xlink:href="#mf65b667cb8" y="84.051746"/>
     <use style="fill:#4c72b0;stroke:#4c72b0;" x="110.408532" xlink:href="#mf65b667cb8" y="83.982411"/>
     <use style="fill:#4c72b0;stroke:#4c72b0;" x="115.122291" xlink:href="#mf65b667cb8" y="83.136255"/>
     <use style="fill:#4c72b0;stroke:#4c72b0;" x="119.836051" xlink:href="#mf65b667cb8" y="80.649237"/>
     <use style="fill:#4c72b0;stroke:#4c72b0;" x="124.549811" xlink:href="#mf65b667cb8" y="81.607913"/>
     <use style="fill:#4c72b0;stroke:#4c72b0;" x="129.263571" xlink:href="#mf65b667cb8" y="80.442802"/>
     <use style="fill:#4c72b0;stroke:#4c72b0;" x="133.977331" xlink:href="#mf65b667cb8" y="81.667749"/>
     <use style="fill:#4c72b0;stroke:#4c72b0;" x="138.691091" xlink:href="#mf65b667cb8" y="78.444296"/>
     <use style="fill:#4c72b0;stroke:#4c72b0;" x="143.40485" xlink:href="#mf65b667cb8" y="79.955912"/>
     <use style="fill:#4c72b0;stroke:#4c72b0;" x="148.11861" xlink:href="#mf65b667cb8" y="80.044871"/>
     <use style="fill:#4c72b0;stroke:#4c72b0;" x="152.83237" xlink:href="#mf65b667cb8" y="81.645901"/>
     <use style="fill:#4c72b0;stroke:#4c72b0;" x="157.54613" xlink:href="#mf65b667cb8" y="77.920291"/>
     <use style="fill:#4c72b0;stroke:#4c72b0;" x="162.25989" xlink:href="#mf65b667cb8" y="79.31808"/>
     <use style="fill:#4c72b0;stroke:#4c72b0;" x="166.973649" xlink:href="#mf65b667cb8" y="79.380969"/>
     <use style="fill:#4c72b0;stroke:#4c72b0;" x="171.687409" xlink:href="#mf65b667cb8" y="79.293355"/>
     <use style="fill:#4c72b0;stroke:#4c72b0;" x="176.401169" xlink:href="#mf65b667cb8" y="79.38629"/>
     <use style="fill:#4c72b0;stroke:#4c72b0;" x="181.114929" xlink:href="#mf65b667cb8" y="79.146853"/>
     <use style="fill:#4c72b0;stroke:#4c72b0;" x="185.828689" xlink:href="#mf65b667cb8" y="78.782196"/>
     <use style="fill:#4c72b0;stroke:#4c72b0;" x="190.542448" xlink:href="#mf65b667cb8" y="77.857501"/>
     <use style="fill:#4c72b0;stroke:#4c72b0;" x="195.256208" xlink:href="#mf65b667cb8" y="76.450897"/>
     <use style="fill:#4c72b0;stroke:#4c72b0;" x="199.969968" xlink:href="#mf65b667cb8" y="77.870647"/>
     <use style="fill:#4c72b0;stroke:#4c72b0;" x="204.683728" xlink:href="#mf65b667cb8" y="78.772793"/>
     <use style="fill:#4c72b0;stroke:#4c72b0;" x="209.397488" xlink:href="#mf65b667cb8" y="78.422435"/>
     <use style="fill:#4c72b0;stroke:#4c72b0;" x="214.111248" xlink:href="#mf65b667cb8" y="76.200092"/>
     <use style="fill:#4c72b0;stroke:#4c72b0;" x="218.825007" xlink:href="#mf65b667cb8" y="78.916523"/>
     <use style="fill:#4c72b0;stroke:#4c72b0;" x="223.538767" xlink:href="#mf65b667cb8" y="78.135994"/>
     <use style="fill:#4c72b0;stroke:#4c72b0;" x="228.252527" xlink:href="#mf65b667cb8" y="77.462204"/>
     <use style="fill:#4c72b0;stroke:#4c72b0;" x="232.966287" xlink:href="#mf65b667cb8" y="76.872022"/>
    </g>
   </g>
   <g id="line2d_17">
    <path clip-path="url(#p079b2a0009)" d="M 58.557174 80.14844 
L 63.270934 76.811144 
L 67.984693 74.437586 
L 72.698453 72.140652 
L 77.412213 69.103153 
L 82.125973 69.659478 
L 86.839733 66.144397 
L 91.553492 68.404875 
L 96.267252 65.602797 
L 100.981012 66.163835 
L 105.694772 64.033552 
L 110.408532 63.877113 
L 115.122291 61.143894 
L 119.836051 62.997492 
L 124.549811 61.319579 
L 129.263571 60.886473 
L 133.977331 59.190931 
L 138.691091 59.958361 
L 143.40485 58.731331 
L 148.11861 59.085802 
L 152.83237 56.334557 
L 157.54613 57.643777 
L 162.25989 54.126434 
L 166.973649 56.638418 
L 171.687409 57.310964 
L 176.401169 55.847791 
L 181.114929 54.788145 
L 185.828689 55.494608 
L 190.542448 54.825036 
L 195.256208 54.683954 
L 199.969968 54.868265 
L 204.683728 53.037919 
L 209.397488 52.567522 
L 214.111248 51.313055 
L 218.825007 52.910674 
L 223.538767 51.295131 
L 228.252527 51.365369 
L 232.966287 51.920486 
" style="fill:none;stroke:#dd8452;stroke-linecap:round;stroke-width:1.5;"/>
    <defs>
     <path d="M 0 1 
C 0.265203 1 0.51958 0.894634 0.707107 0.707107 
C 0.894634 0.51958 1 0.265203 1 0 
C 1 -0.265203 0.894634 -0.51958 0.707107 -0.707107 
C 0.51958 -0.894634 0.265203 -1 0 -1 
C -0.265203 -1 -0.51958 -0.894634 -0.707107 -0.707107 
C -0.894634 -0.51958 -1 -0.265203 -1 0 
C -1 0.265203 -0.894634 0.51958 -0.707107 0.707107 
C -0.51958 0.894634 -0.265203 1 0 1 
z
" id="m790bb16991" style="stroke:#dd8452;"/>
    </defs>
    <g clip-path="url(#p079b2a0009)">
     <use style="fill:#dd8452;stroke:#dd8452;" x="58.557174" xlink:href="#m790bb16991" y="80.14844"/>
     <use style="fill:#dd8452;stroke:#dd8452;" x="63.270934" xlink:href="#m790bb16991" y="76.811144"/>
     <use style="fill:#dd8452;stroke:#dd8452;" x="67.984693" xlink:href="#m790bb16991" y="74.437586"/>
     <use style="fill:#dd8452;stroke:#dd8452;" x="72.698453" xlink:href="#m790bb16991" y="72.140652"/>
     <use style="fill:#dd8452;stroke:#dd8452;" x="77.412213" xlink:href="#m790bb16991" y="69.103153"/>
     <use style="fill:#dd8452;stroke:#dd8452;" x="82.125973" xlink:href="#m790bb16991" y="69.659478"/>
     <use style="fill:#dd8452;stroke:#dd8452;" x="86.839733" xlink:href="#m790bb16991" y="66.144397"/>
     <use style="fill:#dd8452;stroke:#dd8452;" x="91.553492" xlink:href="#m790bb16991" y="68.404875"/>
     <use style="fill:#dd8452;stroke:#dd8452;" x="96.267252" xlink:href="#m790bb16991" y="65.602797"/>
     <use style="fill:#dd8452;stroke:#dd8452;" x="100.981012" xlink:href="#m790bb16991" y="66.163835"/>
     <use style="fill:#dd8452;stroke:#dd8452;" x="105.694772" xlink:href="#m790bb16991" y="64.033552"/>
     <use style="fill:#dd8452;stroke:#dd8452;" x="110.408532" xlink:href="#m790bb16991" y="63.877113"/>
     <use style="fill:#dd8452;stroke:#dd8452;" x="115.122291" xlink:href="#m790bb16991" y="61.143894"/>
     <use style="fill:#dd8452;stroke:#dd8452;" x="119.836051" xlink:href="#m790bb16991" y="62.997492"/>
     <use style="fill:#dd8452;stroke:#dd8452;" x="124.549811" xlink:href="#m790bb16991" y="61.319579"/>
     <use style="fill:#dd8452;stroke:#dd8452;" x="129.263571" xlink:href="#m790bb16991" y="60.886473"/>
     <use style="fill:#dd8452;stroke:#dd8452;" x="133.977331" xlink:href="#m790bb16991" y="59.190931"/>
     <use style="fill:#dd8452;stroke:#dd8452;" x="138.691091" xlink:href="#m790bb16991" y="59.958361"/>
     <use style="fill:#dd8452;stroke:#dd8452;" x="143.40485" xlink:href="#m790bb16991" y="58.731331"/>
     <use style="fill:#dd8452;stroke:#dd8452;" x="148.11861" xlink:href="#m790bb16991" y="59.085802"/>
     <use style="fill:#dd8452;stroke:#dd8452;" x="152.83237" xlink:href="#m790bb16991" y="56.334557"/>
     <use style="fill:#dd8452;stroke:#dd8452;" x="157.54613" xlink:href="#m790bb16991" y="57.643777"/>
     <use style="fill:#dd8452;stroke:#dd8452;" x="162.25989" xlink:href="#m790bb16991" y="54.126434"/>
     <use style="fill:#dd8452;stroke:#dd8452;" x="166.973649" xlink:href="#m790bb16991" y="56.638418"/>
     <use style="fill:#dd8452;stroke:#dd8452;" x="171.687409" xlink:href="#m790bb16991" y="57.310964"/>
     <use style="fill:#dd8452;stroke:#dd8452;" x="176.401169" xlink:href="#m790bb16991" y="55.847791"/>
     <use style="fill:#dd8452;stroke:#dd8452;" x="181.114929" xlink:href="#m790bb16991" y="54.788145"/>
     <use style="fill:#dd8452;stroke:#dd8452;" x="185.828689" xlink:href="#m790bb16991" y="55.494608"/>
     <use style="fill:#dd8452;stroke:#dd8452;" x="190.542448" xlink:href="#m790bb16991" y="54.825036"/>
     <use style="fill:#dd8452;stroke:#dd8452;" x="195.256208" xlink:href="#m790bb16991" y="54.683954"/>
     <use style="fill:#dd8452;stroke:#dd8452;" x="199.969968" xlink:href="#m790bb16991" y="54.868265"/>
     <use style="fill:#dd8452;stroke:#dd8452;" x="204.683728" xlink:href="#m790bb16991" y="53.037919"/>
     <use style="fill:#dd8452;stroke:#dd8452;" x="209.397488" xlink:href="#m790bb16991" y="52.567522"/>
     <use style="fill:#dd8452;stroke:#dd8452;" x="214.111248" xlink:href="#m790bb16991" y="51.313055"/>
     <use style="fill:#dd8452;stroke:#dd8452;" x="218.825007" xlink:href="#m790bb16991" y="52.910674"/>
     <use style="fill:#dd8452;stroke:#dd8452;" x="223.538767" xlink:href="#m790bb16991" y="51.295131"/>
     <use style="fill:#dd8452;stroke:#dd8452;" x="228.252527" xlink:href="#m790bb16991" y="51.365369"/>
     <use style="fill:#dd8452;stroke:#dd8452;" x="232.966287" xlink:href="#m790bb16991" y="51.920486"/>
    </g>
   </g>
   <g id="line2d_18">
    <path clip-path="url(#p079b2a0009)" d="M 67.984693 69.187241 
L 72.698453 65.691776 
L 77.412213 63.159222 
L 82.125973 61.940843 
L 86.839733 60.850491 
L 91.553492 58.148193 
L 96.267252 56.566733 
L 100.981012 55.531209 
L 105.694772 54.648387 
L 110.408532 51.737922 
L 115.122291 51.937984 
L 119.836051 50.49661 
L 124.549811 49.894728 
L 129.263571 48.248105 
L 133.977331 46.948958 
L 138.691091 46.662356 
L 143.40485 45.026702 
L 148.11861 44.7348 
L 152.83237 44.444426 
L 157.54613 43.57391 
L 162.25989 43.711011 
L 166.973649 42.852737 
L 171.687409 41.443365 
L 176.401169 40.839275 
L 181.114929 39.895561 
L 185.828689 40.360226 
L 190.542448 40.198117 
L 195.256208 39.684684 
L 199.969968 38.863971 
L 204.683728 38.259576 
L 209.397488 37.555132 
L 214.111248 33.277814 
L 218.825007 37.114571 
L 223.538767 35.928841 
L 228.252527 36.921337 
L 232.966287 36.155071 
" style="fill:none;stroke:#55a868;stroke-linecap:round;stroke-width:1.5;"/>
    <defs>
     <path d="M 0 1 
C 0.265203 1 0.51958 0.894634 0.707107 0.707107 
C 0.894634 0.51958 1 0.265203 1 0 
C 1 -0.265203 0.894634 -0.51958 0.707107 -0.707107 
C 0.51958 -0.894634 0.265203 -1 0 -1 
C -0.265203 -1 -0.51958 -0.894634 -0.707107 -0.707107 
C -0.894634 -0.51958 -1 -0.265203 -1 0 
C -1 0.265203 -0.894634 0.51958 -0.707107 0.707107 
C -0.51958 0.894634 -0.265203 1 0 1 
z
" id="m01065ed835" style="stroke:#55a868;"/>
    </defs>
    <g clip-path="url(#p079b2a0009)">
     <use style="fill:#55a868;stroke:#55a868;" x="67.984693" xlink:href="#m01065ed835" y="69.187241"/>
     <use style="fill:#55a868;stroke:#55a868;" x="72.698453" xlink:href="#m01065ed835" y="65.691776"/>
     <use style="fill:#55a868;stroke:#55a868;" x="77.412213" xlink:href="#m01065ed835" y="63.159222"/>
     <use style="fill:#55a868;stroke:#55a868;" x="82.125973" xlink:href="#m01065ed835" y="61.940843"/>
     <use style="fill:#55a868;stroke:#55a868;" x="86.839733" xlink:href="#m01065ed835" y="60.850491"/>
     <use style="fill:#55a868;stroke:#55a868;" x="91.553492" xlink:href="#m01065ed835" y="58.148193"/>
     <use style="fill:#55a868;stroke:#55a868;" x="96.267252" xlink:href="#m01065ed835" y="56.566733"/>
     <use style="fill:#55a868;stroke:#55a868;" x="100.981012" xlink:href="#m01065ed835" y="55.531209"/>
     <use style="fill:#55a868;stroke:#55a868;" x="105.694772" xlink:href="#m01065ed835" y="54.648387"/>
     <use style="fill:#55a868;stroke:#55a868;" x="110.408532" xlink:href="#m01065ed835" y="51.737922"/>
     <use style="fill:#55a868;stroke:#55a868;" x="115.122291" xlink:href="#m01065ed835" y="51.937984"/>
     <use style="fill:#55a868;stroke:#55a868;" x="119.836051" xlink:href="#m01065ed835" y="50.49661"/>
     <use style="fill:#55a868;stroke:#55a868;" x="124.549811" xlink:href="#m01065ed835" y="49.894728"/>
     <use style="fill:#55a868;stroke:#55a868;" x="129.263571" xlink:href="#m01065ed835" y="48.248105"/>
     <use style="fill:#55a868;stroke:#55a868;" x="133.977331" xlink:href="#m01065ed835" y="46.948958"/>
     <use style="fill:#55a868;stroke:#55a868;" x="138.691091" xlink:href="#m01065ed835" y="46.662356"/>
     <use style="fill:#55a868;stroke:#55a868;" x="143.40485" xlink:href="#m01065ed835" y="45.026702"/>
     <use style="fill:#55a868;stroke:#55a868;" x="148.11861" xlink:href="#m01065ed835" y="44.7348"/>
     <use style="fill:#55a868;stroke:#55a868;" x="152.83237" xlink:href="#m01065ed835" y="44.444426"/>
     <use style="fill:#55a868;stroke:#55a868;" x="157.54613" xlink:href="#m01065ed835" y="43.57391"/>
     <use style="fill:#55a868;stroke:#55a868;" x="162.25989" xlink:href="#m01065ed835" y="43.711011"/>
     <use style="fill:#55a868;stroke:#55a868;" x="166.973649" xlink:href="#m01065ed835" y="42.852737"/>
     <use style="fill:#55a868;stroke:#55a868;" x="171.687409" xlink:href="#m01065ed835" y="41.443365"/>
     <use style="fill:#55a868;stroke:#55a868;" x="176.401169" xlink:href="#m01065ed835" y="40.839275"/>
     <use style="fill:#55a868;stroke:#55a868;" x="181.114929" xlink:href="#m01065ed835" y="39.895561"/>
     <use style="fill:#55a868;stroke:#55a868;" x="185.828689" xlink:href="#m01065ed835" y="40.360226"/>
     <use style="fill:#55a868;stroke:#55a868;" x="190.542448" xlink:href="#m01065ed835" y="40.198117"/>
     <use style="fill:#55a868;stroke:#55a868;" x="195.256208" xlink:href="#m01065ed835" y="39.684684"/>
     <use style="fill:#55a868;stroke:#55a868;" x="199.969968" xlink:href="#m01065ed835" y="38.863971"/>
     <use style="fill:#55a868;stroke:#55a868;" x="204.683728" xlink:href="#m01065ed835" y="38.259576"/>
     <use style="fill:#55a868;stroke:#55a868;" x="209.397488" xlink:href="#m01065ed835" y="37.555132"/>
     <use style="fill:#55a868;stroke:#55a868;" x="214.111248" xlink:href="#m01065ed835" y="33.277814"/>
     <use style="fill:#55a868;stroke:#55a868;" x="218.825007" xlink:href="#m01065ed835" y="37.114571"/>
     <use style="fill:#55a868;stroke:#55a868;" x="223.538767" xlink:href="#m01065ed835" y="35.928841"/>
     <use style="fill:#55a868;stroke:#55a868;" x="228.252527" xlink:href="#m01065ed835" y="36.921337"/>
     <use style="fill:#55a868;stroke:#55a868;" x="232.966287" xlink:href="#m01065ed835" y="36.155071"/>
    </g>
   </g>
   <g id="line2d_19">
    <path clip-path="url(#p079b2a0009)" d="M 86.839733 49.852716 
L 91.553492 45.656371 
L 96.267252 45.013318 
L 100.981012 40.998639 
L 105.694772 39.691231 
L 110.408532 37.415635 
L 115.122291 34.49971 
L 119.836051 33.887001 
L 124.549811 32.580547 
L 129.263571 29.922083 
L 133.977331 28.500956 
" style="fill:none;stroke:#c44e52;stroke-linecap:round;stroke-width:1.5;"/>
    <defs>
     <path d="M 0 1 
C 0.265203 1 0.51958 0.894634 0.707107 0.707107 
C 0.894634 0.51958 1 0.265203 1 0 
C 1 -0.265203 0.894634 -0.51958 0.707107 -0.707107 
C 0.51958 -0.894634 0.265203 -1 0 -1 
C -0.265203 -1 -0.51958 -0.894634 -0.707107 -0.707107 
C -0.894634 -0.51958 -1 -0.265203 -1 0 
C -1 0.265203 -0.894634 0.51958 -0.707107 0.707107 
C -0.51958 0.894634 -0.265203 1 0 1 
z
" id="m2266df55a8" style="stroke:#c44e52;"/>
    </defs>
    <g clip-path="url(#p079b2a0009)">
     <use style="fill:#c44e52;stroke:#c44e52;" x="86.839733" xlink:href="#m2266df55a8" y="49.852716"/>
     <use style="fill:#c44e52;stroke:#c44e52;" x="91.553492" xlink:href="#m2266df55a8" y="45.656371"/>
     <use style="fill:#c44e52;stroke:#c44e52;" x="96.267252" xlink:href="#m2266df55a8" y="45.013318"/>
     <use style="fill:#c44e52;stroke:#c44e52;" x="100.981012" xlink:href="#m2266df55a8" y="40.998639"/>
     <use style="fill:#c44e52;stroke:#c44e52;" x="105.694772" xlink:href="#m2266df55a8" y="39.691231"/>
     <use style="fill:#c44e52;stroke:#c44e52;" x="110.408532" xlink:href="#m2266df55a8" y="37.415635"/>
     <use style="fill:#c44e52;stroke:#c44e52;" x="115.122291" xlink:href="#m2266df55a8" y="34.49971"/>
     <use style="fill:#c44e52;stroke:#c44e52;" x="119.836051" xlink:href="#m2266df55a8" y="33.887001"/>
     <use style="fill:#c44e52;stroke:#c44e52;" x="124.549811" xlink:href="#m2266df55a8" y="32.580547"/>
     <use style="fill:#c44e52;stroke:#c44e52;" x="129.263571" xlink:href="#m2266df55a8" y="29.922083"/>
     <use style="fill:#c44e52;stroke:#c44e52;" x="133.977331" xlink:href="#m2266df55a8" y="28.500956"/>
    </g>
   </g>
   <g id="patch_3">
    <path d="M 39.937823 107.192288 
L 39.937823 24.75375 
" style="fill:none;stroke:#ffffff;stroke-linecap:square;stroke-linejoin:miter;stroke-width:1.25;"/>
   </g>
   <g id="patch_4">
    <path d="M 242.158118 107.192288 
L 242.158118 24.75375 
" style="fill:none;stroke:#ffffff;stroke-linecap:square;stroke-linejoin:miter;stroke-width:1.25;"/>
   </g>
   <g id="patch_5">
    <path d="M 39.937823 107.192288 
L 242.158118 107.192288 
" style="fill:none;stroke:#ffffff;stroke-linecap:square;stroke-linejoin:miter;stroke-width:1.25;"/>
   </g>
   <g id="patch_6">
    <path d="M 39.937823 24.75375 
L 242.158118 24.75375 
" style="fill:none;stroke:#ffffff;stroke-linecap:square;stroke-linejoin:miter;stroke-width:1.25;"/>
   </g>
   <g id="text_18">
    <!-- Average Gurobi Runtime vs Dimension -->
    <g style="fill:#262626;" transform="translate(71.981095 18.75375)scale(0.08 -0.08)">
     <defs>
      <path d="M -9 0 
L 1750 4581 
L 2403 4581 
L 4278 0 
L 3588 0 
L 3053 1388 
L 1138 1388 
L 634 0 
L -9 0 
z
M 1313 1881 
L 2866 1881 
L 2388 3150 
Q 2169 3728 2063 4100 
Q 1975 3659 1816 3225 
L 1313 1881 
z
" id="ArialMT-41" transform="scale(0.015625)"/>
      <path d="M 1344 0 
L 81 3319 
L 675 3319 
L 1388 1331 
Q 1503 1009 1600 663 
Q 1675 925 1809 1294 
L 2547 3319 
L 3125 3319 
L 1869 0 
L 1344 0 
z
" id="ArialMT-76" transform="scale(0.015625)"/>
      <path d="M 416 0 
L 416 3319 
L 922 3319 
L 922 2816 
Q 1116 3169 1280 3281 
Q 1444 3394 1641 3394 
Q 1925 3394 2219 3213 
L 2025 2691 
Q 1819 2813 1613 2813 
Q 1428 2813 1281 2702 
Q 1134 2591 1072 2394 
Q 978 2094 978 1738 
L 978 0 
L 416 0 
z
" id="ArialMT-72" transform="scale(0.015625)"/>
      <path d="M 2588 409 
Q 2275 144 1986 34 
Q 1697 -75 1366 -75 
Q 819 -75 525 192 
Q 231 459 231 875 
Q 231 1119 342 1320 
Q 453 1522 633 1644 
Q 813 1766 1038 1828 
Q 1203 1872 1538 1913 
Q 2219 1994 2541 2106 
Q 2544 2222 2544 2253 
Q 2544 2597 2384 2738 
Q 2169 2928 1744 2928 
Q 1347 2928 1158 2789 
Q 969 2650 878 2297 
L 328 2372 
Q 403 2725 575 2942 
Q 747 3159 1072 3276 
Q 1397 3394 1825 3394 
Q 2250 3394 2515 3294 
Q 2781 3194 2906 3042 
Q 3031 2891 3081 2659 
Q 3109 2516 3109 2141 
L 3109 1391 
Q 3109 606 3145 398 
Q 3181 191 3288 0 
L 2700 0 
Q 2613 175 2588 409 
z
M 2541 1666 
Q 2234 1541 1622 1453 
Q 1275 1403 1131 1340 
Q 988 1278 909 1158 
Q 831 1038 831 891 
Q 831 666 1001 516 
Q 1172 366 1500 366 
Q 1825 366 2078 508 
Q 2331 650 2450 897 
Q 2541 1088 2541 1459 
L 2541 1666 
z
" id="ArialMT-61" transform="scale(0.015625)"/>
      <path d="M 319 -275 
L 866 -356 
Q 900 -609 1056 -725 
Q 1266 -881 1628 -881 
Q 2019 -881 2231 -725 
Q 2444 -569 2519 -288 
Q 2563 -116 2559 434 
Q 2191 0 1641 0 
Q 956 0 581 494 
Q 206 988 206 1678 
Q 206 2153 378 2554 
Q 550 2956 876 3175 
Q 1203 3394 1644 3394 
Q 2231 3394 2613 2919 
L 2613 3319 
L 3131 3319 
L 3131 450 
Q 3131 -325 2973 -648 
Q 2816 -972 2473 -1159 
Q 2131 -1347 1631 -1347 
Q 1038 -1347 672 -1080 
Q 306 -813 319 -275 
z
M 784 1719 
Q 784 1066 1043 766 
Q 1303 466 1694 466 
Q 2081 466 2343 764 
Q 2606 1063 2606 1700 
Q 2606 2309 2336 2618 
Q 2066 2928 1684 2928 
Q 1309 2928 1046 2623 
Q 784 2319 784 1719 
z
" id="ArialMT-67" transform="scale(0.015625)"/>
      <path d="M 2638 1797 
L 2638 2334 
L 4578 2338 
L 4578 638 
Q 4131 281 3656 101 
Q 3181 -78 2681 -78 
Q 2006 -78 1454 211 
Q 903 500 622 1047 
Q 341 1594 341 2269 
Q 341 2938 620 3517 
Q 900 4097 1425 4378 
Q 1950 4659 2634 4659 
Q 3131 4659 3532 4498 
Q 3934 4338 4162 4050 
Q 4391 3763 4509 3300 
L 3963 3150 
Q 3859 3500 3706 3700 
Q 3553 3900 3268 4020 
Q 2984 4141 2638 4141 
Q 2222 4141 1919 4014 
Q 1616 3888 1430 3681 
Q 1244 3475 1141 3228 
Q 966 2803 966 2306 
Q 966 1694 1177 1281 
Q 1388 869 1791 669 
Q 2194 469 2647 469 
Q 3041 469 3416 620 
Q 3791 772 3984 944 
L 3984 1797 
L 2638 1797 
z
" id="ArialMT-47" transform="scale(0.015625)"/>
      <path d="M 941 0 
L 419 0 
L 419 4581 
L 981 4581 
L 981 2947 
Q 1338 3394 1891 3394 
Q 2197 3394 2470 3270 
Q 2744 3147 2920 2923 
Q 3097 2700 3197 2384 
Q 3297 2069 3297 1709 
Q 3297 856 2875 390 
Q 2453 -75 1863 -75 
Q 1275 -75 941 416 
L 941 0 
z
M 934 1684 
Q 934 1088 1097 822 
Q 1363 388 1816 388 
Q 2184 388 2453 708 
Q 2722 1028 2722 1663 
Q 2722 2313 2464 2622 
Q 2206 2931 1841 2931 
Q 1472 2931 1203 2611 
Q 934 2291 934 1684 
z
" id="ArialMT-62" transform="scale(0.015625)"/>
     </defs>
     <use xlink:href="#ArialMT-41"/>
     <use x="64.949219" xlink:href="#ArialMT-76"/>
     <use x="114.949219" xlink:href="#ArialMT-65"/>
     <use x="170.564453" xlink:href="#ArialMT-72"/>
     <use x="203.865234" xlink:href="#ArialMT-61"/>
     <use x="259.480469" xlink:href="#ArialMT-67"/>
     <use x="315.095703" xlink:href="#ArialMT-65"/>
     <use x="370.710938" xlink:href="#ArialMT-20"/>
     <use x="398.494141" xlink:href="#ArialMT-47"/>
     <use x="476.277344" xlink:href="#ArialMT-75"/>
     <use x="531.892578" xlink:href="#ArialMT-72"/>
     <use x="565.193359" xlink:href="#ArialMT-6f"/>
     <use x="620.808594" xlink:href="#ArialMT-62"/>
     <use x="676.423828" xlink:href="#ArialMT-69"/>
     <use x="698.640625" xlink:href="#ArialMT-20"/>
     <use x="726.423828" xlink:href="#ArialMT-52"/>
     <use x="798.640625" xlink:href="#ArialMT-75"/>
     <use x="854.255859" xlink:href="#ArialMT-6e"/>
     <use x="909.871094" xlink:href="#ArialMT-74"/>
     <use x="937.654297" xlink:href="#ArialMT-69"/>
     <use x="959.871094" xlink:href="#ArialMT-6d"/>
     <use x="1043.171875" xlink:href="#ArialMT-65"/>
     <use x="1098.787109" xlink:href="#ArialMT-20"/>
     <use x="1126.570312" xlink:href="#ArialMT-76"/>
     <use x="1176.570312" xlink:href="#ArialMT-73"/>
     <use x="1226.570312" xlink:href="#ArialMT-20"/>
     <use x="1254.353516" xlink:href="#ArialMT-44"/>
     <use x="1326.570312" xlink:href="#ArialMT-69"/>
     <use x="1348.787109" xlink:href="#ArialMT-6d"/>
     <use x="1432.087891" xlink:href="#ArialMT-65"/>
     <use x="1487.703125" xlink:href="#ArialMT-6e"/>
     <use x="1543.318359" xlink:href="#ArialMT-73"/>
     <use x="1593.318359" xlink:href="#ArialMT-69"/>
     <use x="1615.535156" xlink:href="#ArialMT-6f"/>
     <use x="1671.150391" xlink:href="#ArialMT-6e"/>
    </g>
   </g>
   <g id="legend_1">
    <g id="patch_7">
     <path d="M 43.087823 54.245625 
L 79.997666 54.245625 
Q 80.897666 54.245625 80.897666 53.345625 
L 80.897666 27.90375 
Q 80.897666 27.00375 79.997666 27.00375 
L 43.087823 27.00375 
Q 42.187823 27.00375 42.187823 27.90375 
L 42.187823 53.345625 
Q 42.187823 54.245625 43.087823 54.245625 
z
" style="fill:#ffffff;opacity:0.8;stroke:#cccccc;stroke-linejoin:miter;"/>
    </g>
    <g id="line2d_20">
     <path d="M 43.987823 30.504609 
L 52.987823 30.504609 
" style="fill:none;stroke:#4c72b0;stroke-linecap:round;stroke-width:1.5;"/>
    </g>
    <g id="line2d_21">
     <g>
      <use style="fill:#4c72b0;stroke:#4c72b0;" x="48.487823" xlink:href="#mf65b667cb8" y="30.504609"/>
     </g>
    </g>
    <g id="text_19">
     <!-- Sparsity 5 -->
     <g style="fill:#262626;" transform="translate(56.587823 32.079609)scale(0.045 -0.045)">
      <defs>
       <path d="M 288 1472 
L 859 1522 
Q 900 1178 1048 958 
Q 1197 738 1509 602 
Q 1822 466 2213 466 
Q 2559 466 2825 569 
Q 3091 672 3220 851 
Q 3350 1031 3350 1244 
Q 3350 1459 3225 1620 
Q 3100 1781 2813 1891 
Q 2628 1963 1997 2114 
Q 1366 2266 1113 2400 
Q 784 2572 623 2826 
Q 463 3081 463 3397 
Q 463 3744 659 4045 
Q 856 4347 1234 4503 
Q 1613 4659 2075 4659 
Q 2584 4659 2973 4495 
Q 3363 4331 3572 4012 
Q 3781 3694 3797 3291 
L 3216 3247 
Q 3169 3681 2898 3903 
Q 2628 4125 2100 4125 
Q 1550 4125 1298 3923 
Q 1047 3722 1047 3438 
Q 1047 3191 1225 3031 
Q 1400 2872 2139 2705 
Q 2878 2538 3153 2413 
Q 3553 2228 3743 1945 
Q 3934 1663 3934 1294 
Q 3934 928 3725 604 
Q 3516 281 3123 101 
Q 2731 -78 2241 -78 
Q 1619 -78 1198 103 
Q 778 284 539 648 
Q 300 1013 288 1472 
z
" id="ArialMT-53" transform="scale(0.015625)"/>
       <path d="M 422 -1272 
L 422 3319 
L 934 3319 
L 934 2888 
Q 1116 3141 1344 3267 
Q 1572 3394 1897 3394 
Q 2322 3394 2647 3175 
Q 2972 2956 3137 2557 
Q 3303 2159 3303 1684 
Q 3303 1175 3120 767 
Q 2938 359 2589 142 
Q 2241 -75 1856 -75 
Q 1575 -75 1351 44 
Q 1128 163 984 344 
L 984 -1272 
L 422 -1272 
z
M 931 1641 
Q 931 1000 1190 694 
Q 1450 388 1819 388 
Q 2194 388 2461 705 
Q 2728 1022 2728 1688 
Q 2728 2322 2467 2637 
Q 2206 2953 1844 2953 
Q 1484 2953 1207 2617 
Q 931 2281 931 1641 
z
" id="ArialMT-70" transform="scale(0.015625)"/>
       <path d="M 397 -1278 
L 334 -750 
Q 519 -800 656 -800 
Q 844 -800 956 -737 
Q 1069 -675 1141 -563 
Q 1194 -478 1313 -144 
Q 1328 -97 1363 -6 
L 103 3319 
L 709 3319 
L 1400 1397 
Q 1534 1031 1641 628 
Q 1738 1016 1872 1384 
L 2581 3319 
L 3144 3319 
L 1881 -56 
Q 1678 -603 1566 -809 
Q 1416 -1088 1222 -1217 
Q 1028 -1347 759 -1347 
Q 597 -1347 397 -1278 
z
" id="ArialMT-79" transform="scale(0.015625)"/>
      </defs>
      <use xlink:href="#ArialMT-53"/>
      <use x="66.699219" xlink:href="#ArialMT-70"/>
      <use x="122.314453" xlink:href="#ArialMT-61"/>
      <use x="177.929688" xlink:href="#ArialMT-72"/>
      <use x="211.230469" xlink:href="#ArialMT-73"/>
      <use x="261.230469" xlink:href="#ArialMT-69"/>
      <use x="283.447266" xlink:href="#ArialMT-74"/>
      <use x="311.230469" xlink:href="#ArialMT-79"/>
      <use x="361.230469" xlink:href="#ArialMT-20"/>
      <use x="389.013672" xlink:href="#ArialMT-35"/>
     </g>
    </g>
    <g id="line2d_22">
     <path d="M 43.987823 36.977578 
L 52.987823 36.977578 
" style="fill:none;stroke:#dd8452;stroke-linecap:round;stroke-width:1.5;"/>
    </g>
    <g id="line2d_23">
     <g>
      <use style="fill:#dd8452;stroke:#dd8452;" x="48.487823" xlink:href="#m790bb16991" y="36.977578"/>
     </g>
    </g>
    <g id="text_20">
     <!-- Sparsity 15 -->
     <g style="fill:#262626;" transform="translate(56.587823 38.552578)scale(0.045 -0.045)">
      <use xlink:href="#ArialMT-53"/>
      <use x="66.699219" xlink:href="#ArialMT-70"/>
      <use x="122.314453" xlink:href="#ArialMT-61"/>
      <use x="177.929688" xlink:href="#ArialMT-72"/>
      <use x="211.230469" xlink:href="#ArialMT-73"/>
      <use x="261.230469" xlink:href="#ArialMT-69"/>
      <use x="283.447266" xlink:href="#ArialMT-74"/>
      <use x="311.230469" xlink:href="#ArialMT-79"/>
      <use x="361.230469" xlink:href="#ArialMT-20"/>
      <use x="389.013672" xlink:href="#ArialMT-31"/>
      <use x="444.628906" xlink:href="#ArialMT-35"/>
     </g>
    </g>
    <g id="line2d_24">
     <path d="M 43.987823 43.450547 
L 52.987823 43.450547 
" style="fill:none;stroke:#55a868;stroke-linecap:round;stroke-width:1.5;"/>
    </g>
    <g id="line2d_25">
     <g>
      <use style="fill:#55a868;stroke:#55a868;" x="48.487823" xlink:href="#m01065ed835" y="43.450547"/>
     </g>
    </g>
    <g id="text_21">
     <!-- Sparsity 25 -->
     <g style="fill:#262626;" transform="translate(56.587823 45.025547)scale(0.045 -0.045)">
      <use xlink:href="#ArialMT-53"/>
      <use x="66.699219" xlink:href="#ArialMT-70"/>
      <use x="122.314453" xlink:href="#ArialMT-61"/>
      <use x="177.929688" xlink:href="#ArialMT-72"/>
      <use x="211.230469" xlink:href="#ArialMT-73"/>
      <use x="261.230469" xlink:href="#ArialMT-69"/>
      <use x="283.447266" xlink:href="#ArialMT-74"/>
      <use x="311.230469" xlink:href="#ArialMT-79"/>
      <use x="361.230469" xlink:href="#ArialMT-20"/>
      <use x="389.013672" xlink:href="#ArialMT-32"/>
      <use x="444.628906" xlink:href="#ArialMT-35"/>
     </g>
    </g>
    <g id="line2d_26">
     <path d="M 43.987823 49.923516 
L 52.987823 49.923516 
" style="fill:none;stroke:#c44e52;stroke-linecap:round;stroke-width:1.5;"/>
    </g>
    <g id="line2d_27">
     <g>
      <use style="fill:#c44e52;stroke:#c44e52;" x="48.487823" xlink:href="#m2266df55a8" y="49.923516"/>
     </g>
    </g>
    <g id="text_22">
     <!-- Sparsity 45 -->
     <g style="fill:#262626;" transform="translate(56.587823 51.498516)scale(0.045 -0.045)">
      <defs>
       <path d="M 2069 0 
L 2069 1097 
L 81 1097 
L 81 1613 
L 2172 4581 
L 2631 4581 
L 2631 1613 
L 3250 1613 
L 3250 1097 
L 2631 1097 
L 2631 0 
L 2069 0 
z
M 2069 1613 
L 2069 3678 
L 634 1613 
L 2069 1613 
z
" id="ArialMT-34" transform="scale(0.015625)"/>
      </defs>
      <use xlink:href="#ArialMT-53"/>
      <use x="66.699219" xlink:href="#ArialMT-70"/>
      <use x="122.314453" xlink:href="#ArialMT-61"/>
      <use x="177.929688" xlink:href="#ArialMT-72"/>
      <use x="211.230469" xlink:href="#ArialMT-73"/>
      <use x="261.230469" xlink:href="#ArialMT-69"/>
      <use x="283.447266" xlink:href="#ArialMT-74"/>
      <use x="311.230469" xlink:href="#ArialMT-79"/>
      <use x="361.230469" xlink:href="#ArialMT-20"/>
      <use x="389.013672" xlink:href="#ArialMT-34"/>
      <use x="444.628906" xlink:href="#ArialMT-35"/>
     </g>
    </g>
   </g>
  </g>
 </g>
 <defs>
  <clipPath id="p079b2a0009">
   <rect height="82.438538" width="202.220296" x="39.937823" y="24.75375"/>
  </clipPath>
 </defs>
</svg>
