<?xml version="1.0" encoding="utf-8" standalone="no"?>
<!DOCTYPE svg PUBLIC "-//W3C//DTD SVG 1.1//EN"
  "http://www.w3.org/Graphics/SVG/1.1/DTD/svg11.dtd">
<svg height="141.732288pt" version="1.1" viewBox="0 0 255.118118 141.732288" width="255.118118pt" xmlns="http://www.w3.org/2000/svg" xmlns:xlink="http://www.w3.org/1999/xlink">
 <metadata>
  <rdf:RDF xmlns:cc="http://creativecommons.org/ns#" xmlns:dc="http://purl.org/dc/elements/1.1/" xmlns:rdf="http://www.w3.org/1999/02/22-rdf-syntax-ns#">
   <cc:Work>
    <dc:type rdf:resource="http://purl.org/dc/dcmitype/StillImage"/>
    <dc:date>2022-12-02T11:04:02.604715</dc:date>
    <dc:format>image/svg+xml</dc:format>
    <dc:creator>
     <cc:Agent>
      <dc:title>Matplotlib v3.4.3, https://matplotlib.org/</dc:title>
     </cc:Agent>
    </dc:creator>
   </cc:Work>
  </rdf:RDF>
 </metadata>
 <defs>
  <style type="text/css">*{stroke-linecap:butt;stroke-linejoin:round;}</style>
 </defs>
 <g id="figure_1">
  <g id="patch_1">
   <path d="M 0 141.732288 
L 255.118118 141.732288 
L 255.118118 0 
L 0 0 
z
" style="fill:#ffffff;"/>
  </g>
  <g id="axes_1">
   <g id="patch_2">
    <path d="M 37.893814 107.192288 
L 242.158118 107.192288 
L 242.158118 24.72 
L 37.893814 24.72 
z
" style="fill:#eaeaf2;"/>
   </g>
   <g id="matplotlib.axis_1">
    <g id="xtick_1">
     <g id="line2d_1">
      <path clip-path="url(#p1d9650e8c3)" d="M 42.417149 107.192288 
L 42.417149 24.72 
" style="fill:none;stroke:#ffffff;stroke-linecap:round;"/>
     </g>
     <g id="text_1">
      <!-- 0 -->
      <g style="fill:#262626;" transform="translate(41.026915 120.271194)scale(0.05 -0.05)">
       <defs>
        <path d="M 266 2259 
Q 266 3072 433 3567 
Q 600 4063 929 4331 
Q 1259 4600 1759 4600 
Q 2128 4600 2406 4451 
Q 2684 4303 2865 4023 
Q 3047 3744 3150 3342 
Q 3253 2941 3253 2259 
Q 3253 1453 3087 958 
Q 2922 463 2592 192 
Q 2263 -78 1759 -78 
Q 1097 -78 719 397 
Q 266 969 266 2259 
z
M 844 2259 
Q 844 1131 1108 757 
Q 1372 384 1759 384 
Q 2147 384 2411 759 
Q 2675 1134 2675 2259 
Q 2675 3391 2411 3762 
Q 2147 4134 1753 4134 
Q 1366 4134 1134 3806 
Q 844 3388 844 2259 
z
" id="ArialMT-30" transform="scale(0.015625)"/>
       </defs>
       <use xlink:href="#ArialMT-30"/>
      </g>
     </g>
    </g>
    <g id="xtick_2">
     <g id="line2d_2">
      <path clip-path="url(#p1d9650e8c3)" d="M 66.224178 107.192288 
L 66.224178 24.72 
" style="fill:none;stroke:#ffffff;stroke-linecap:round;"/>
     </g>
     <g id="text_2">
      <!-- 25 -->
      <g style="fill:#262626;" transform="translate(63.443709 120.271194)scale(0.05 -0.05)">
       <defs>
        <path d="M 3222 541 
L 3222 0 
L 194 0 
Q 188 203 259 391 
Q 375 700 629 1000 
Q 884 1300 1366 1694 
Q 2113 2306 2375 2664 
Q 2638 3022 2638 3341 
Q 2638 3675 2398 3904 
Q 2159 4134 1775 4134 
Q 1369 4134 1125 3890 
Q 881 3647 878 3216 
L 300 3275 
Q 359 3922 746 4261 
Q 1134 4600 1788 4600 
Q 2447 4600 2831 4234 
Q 3216 3869 3216 3328 
Q 3216 3053 3103 2787 
Q 2991 2522 2730 2228 
Q 2469 1934 1863 1422 
Q 1356 997 1212 845 
Q 1069 694 975 541 
L 3222 541 
z
" id="ArialMT-32" transform="scale(0.015625)"/>
        <path d="M 266 1200 
L 856 1250 
Q 922 819 1161 601 
Q 1400 384 1738 384 
Q 2144 384 2425 690 
Q 2706 997 2706 1503 
Q 2706 1984 2436 2262 
Q 2166 2541 1728 2541 
Q 1456 2541 1237 2417 
Q 1019 2294 894 2097 
L 366 2166 
L 809 4519 
L 3088 4519 
L 3088 3981 
L 1259 3981 
L 1013 2750 
Q 1425 3038 1878 3038 
Q 2478 3038 2890 2622 
Q 3303 2206 3303 1553 
Q 3303 931 2941 478 
Q 2500 -78 1738 -78 
Q 1113 -78 717 272 
Q 322 622 266 1200 
z
" id="ArialMT-35" transform="scale(0.015625)"/>
       </defs>
       <use xlink:href="#ArialMT-32"/>
       <use x="55.615234" xlink:href="#ArialMT-35"/>
      </g>
     </g>
    </g>
    <g id="xtick_3">
     <g id="line2d_3">
      <path clip-path="url(#p1d9650e8c3)" d="M 90.031206 107.192288 
L 90.031206 24.72 
" style="fill:none;stroke:#ffffff;stroke-linecap:round;"/>
     </g>
     <g id="text_3">
      <!-- 50 -->
      <g style="fill:#262626;" transform="translate(87.250738 120.271194)scale(0.05 -0.05)">
       <use xlink:href="#ArialMT-35"/>
       <use x="55.615234" xlink:href="#ArialMT-30"/>
      </g>
     </g>
    </g>
    <g id="xtick_4">
     <g id="line2d_4">
      <path clip-path="url(#p1d9650e8c3)" d="M 113.838235 107.192288 
L 113.838235 24.72 
" style="fill:none;stroke:#ffffff;stroke-linecap:round;"/>
     </g>
     <g id="text_4">
      <!-- 75 -->
      <g style="fill:#262626;" transform="translate(111.057766 120.271194)scale(0.05 -0.05)">
       <defs>
        <path d="M 303 3981 
L 303 4522 
L 3269 4522 
L 3269 4084 
Q 2831 3619 2401 2847 
Q 1972 2075 1738 1259 
Q 1569 684 1522 0 
L 944 0 
Q 953 541 1156 1306 
Q 1359 2072 1739 2783 
Q 2119 3494 2547 3981 
L 303 3981 
z
" id="ArialMT-37" transform="scale(0.015625)"/>
       </defs>
       <use xlink:href="#ArialMT-37"/>
       <use x="55.615234" xlink:href="#ArialMT-35"/>
      </g>
     </g>
    </g>
    <g id="xtick_5">
     <g id="line2d_5">
      <path clip-path="url(#p1d9650e8c3)" d="M 137.645263 107.192288 
L 137.645263 24.72 
" style="fill:none;stroke:#ffffff;stroke-linecap:round;"/>
     </g>
     <g id="text_5">
      <!-- 100 -->
      <g style="fill:#262626;" transform="translate(133.47456 120.271194)scale(0.05 -0.05)">
       <defs>
        <path d="M 2384 0 
L 1822 0 
L 1822 3584 
Q 1619 3391 1289 3197 
Q 959 3003 697 2906 
L 697 3450 
Q 1169 3672 1522 3987 
Q 1875 4303 2022 4600 
L 2384 4600 
L 2384 0 
z
" id="ArialMT-31" transform="scale(0.015625)"/>
       </defs>
       <use xlink:href="#ArialMT-31"/>
       <use x="55.615234" xlink:href="#ArialMT-30"/>
       <use x="111.230469" xlink:href="#ArialMT-30"/>
      </g>
     </g>
    </g>
    <g id="xtick_6">
     <g id="line2d_6">
      <path clip-path="url(#p1d9650e8c3)" d="M 161.452292 107.192288 
L 161.452292 24.72 
" style="fill:none;stroke:#ffffff;stroke-linecap:round;"/>
     </g>
     <g id="text_6">
      <!-- 125 -->
      <g style="fill:#262626;" transform="translate(157.281589 120.271194)scale(0.05 -0.05)">
       <use xlink:href="#ArialMT-31"/>
       <use x="55.615234" xlink:href="#ArialMT-32"/>
       <use x="111.230469" xlink:href="#ArialMT-35"/>
      </g>
     </g>
    </g>
    <g id="xtick_7">
     <g id="line2d_7">
      <path clip-path="url(#p1d9650e8c3)" d="M 185.25932 107.192288 
L 185.25932 24.72 
" style="fill:none;stroke:#ffffff;stroke-linecap:round;"/>
     </g>
     <g id="text_7">
      <!-- 150 -->
      <g style="fill:#262626;" transform="translate(181.088617 120.271194)scale(0.05 -0.05)">
       <use xlink:href="#ArialMT-31"/>
       <use x="55.615234" xlink:href="#ArialMT-35"/>
       <use x="111.230469" xlink:href="#ArialMT-30"/>
      </g>
     </g>
    </g>
    <g id="xtick_8">
     <g id="line2d_8">
      <path clip-path="url(#p1d9650e8c3)" d="M 209.066349 107.192288 
L 209.066349 24.72 
" style="fill:none;stroke:#ffffff;stroke-linecap:round;"/>
     </g>
     <g id="text_8">
      <!-- 175 -->
      <g style="fill:#262626;" transform="translate(204.895646 120.271194)scale(0.05 -0.05)">
       <use xlink:href="#ArialMT-31"/>
       <use x="55.615234" xlink:href="#ArialMT-37"/>
       <use x="111.230469" xlink:href="#ArialMT-35"/>
      </g>
     </g>
    </g>
    <g id="xtick_9">
     <g id="line2d_9">
      <path clip-path="url(#p1d9650e8c3)" d="M 232.873377 107.192288 
L 232.873377 24.72 
" style="fill:none;stroke:#ffffff;stroke-linecap:round;"/>
     </g>
     <g id="text_9">
      <!-- 200 -->
      <g style="fill:#262626;" transform="translate(228.702674 120.271194)scale(0.05 -0.05)">
       <use xlink:href="#ArialMT-32"/>
       <use x="55.615234" xlink:href="#ArialMT-30"/>
       <use x="111.230469" xlink:href="#ArialMT-30"/>
      </g>
     </g>
    </g>
    <g id="text_10">
     <!-- Dimension -->
     <g style="fill:#262626;" transform="translate(125.854247 127.559632)scale(0.06 -0.06)">
      <defs>
       <path d="M 494 0 
L 494 4581 
L 2072 4581 
Q 2606 4581 2888 4516 
Q 3281 4425 3559 4188 
Q 3922 3881 4101 3404 
Q 4281 2928 4281 2316 
Q 4281 1794 4159 1391 
Q 4038 988 3847 723 
Q 3656 459 3429 307 
Q 3203 156 2883 78 
Q 2563 0 2147 0 
L 494 0 
z
M 1100 541 
L 2078 541 
Q 2531 541 2789 625 
Q 3047 709 3200 863 
Q 3416 1078 3536 1442 
Q 3656 1806 3656 2325 
Q 3656 3044 3420 3430 
Q 3184 3816 2847 3947 
Q 2603 4041 2063 4041 
L 1100 4041 
L 1100 541 
z
" id="ArialMT-44" transform="scale(0.015625)"/>
       <path d="M 425 3934 
L 425 4581 
L 988 4581 
L 988 3934 
L 425 3934 
z
M 425 0 
L 425 3319 
L 988 3319 
L 988 0 
L 425 0 
z
" id="ArialMT-69" transform="scale(0.015625)"/>
       <path d="M 422 0 
L 422 3319 
L 925 3319 
L 925 2853 
Q 1081 3097 1340 3245 
Q 1600 3394 1931 3394 
Q 2300 3394 2536 3241 
Q 2772 3088 2869 2813 
Q 3263 3394 3894 3394 
Q 4388 3394 4653 3120 
Q 4919 2847 4919 2278 
L 4919 0 
L 4359 0 
L 4359 2091 
Q 4359 2428 4304 2576 
Q 4250 2725 4106 2815 
Q 3963 2906 3769 2906 
Q 3419 2906 3187 2673 
Q 2956 2441 2956 1928 
L 2956 0 
L 2394 0 
L 2394 2156 
Q 2394 2531 2256 2718 
Q 2119 2906 1806 2906 
Q 1569 2906 1367 2781 
Q 1166 2656 1075 2415 
Q 984 2175 984 1722 
L 984 0 
L 422 0 
z
" id="ArialMT-6d" transform="scale(0.015625)"/>
       <path d="M 2694 1069 
L 3275 997 
Q 3138 488 2766 206 
Q 2394 -75 1816 -75 
Q 1088 -75 661 373 
Q 234 822 234 1631 
Q 234 2469 665 2931 
Q 1097 3394 1784 3394 
Q 2450 3394 2872 2941 
Q 3294 2488 3294 1666 
Q 3294 1616 3291 1516 
L 816 1516 
Q 847 969 1125 678 
Q 1403 388 1819 388 
Q 2128 388 2347 550 
Q 2566 713 2694 1069 
z
M 847 1978 
L 2700 1978 
Q 2663 2397 2488 2606 
Q 2219 2931 1791 2931 
Q 1403 2931 1139 2672 
Q 875 2413 847 1978 
z
" id="ArialMT-65" transform="scale(0.015625)"/>
       <path d="M 422 0 
L 422 3319 
L 928 3319 
L 928 2847 
Q 1294 3394 1984 3394 
Q 2284 3394 2536 3286 
Q 2788 3178 2913 3003 
Q 3038 2828 3088 2588 
Q 3119 2431 3119 2041 
L 3119 0 
L 2556 0 
L 2556 2019 
Q 2556 2363 2490 2533 
Q 2425 2703 2258 2804 
Q 2091 2906 1866 2906 
Q 1506 2906 1245 2678 
Q 984 2450 984 1813 
L 984 0 
L 422 0 
z
" id="ArialMT-6e" transform="scale(0.015625)"/>
       <path d="M 197 991 
L 753 1078 
Q 800 744 1014 566 
Q 1228 388 1613 388 
Q 2000 388 2187 545 
Q 2375 703 2375 916 
Q 2375 1106 2209 1216 
Q 2094 1291 1634 1406 
Q 1016 1563 777 1677 
Q 538 1791 414 1992 
Q 291 2194 291 2438 
Q 291 2659 392 2848 
Q 494 3038 669 3163 
Q 800 3259 1026 3326 
Q 1253 3394 1513 3394 
Q 1903 3394 2198 3281 
Q 2494 3169 2634 2976 
Q 2775 2784 2828 2463 
L 2278 2388 
Q 2241 2644 2061 2787 
Q 1881 2931 1553 2931 
Q 1166 2931 1000 2803 
Q 834 2675 834 2503 
Q 834 2394 903 2306 
Q 972 2216 1119 2156 
Q 1203 2125 1616 2013 
Q 2213 1853 2448 1751 
Q 2684 1650 2818 1456 
Q 2953 1263 2953 975 
Q 2953 694 2789 445 
Q 2625 197 2315 61 
Q 2006 -75 1616 -75 
Q 969 -75 630 194 
Q 291 463 197 991 
z
" id="ArialMT-73" transform="scale(0.015625)"/>
       <path d="M 213 1659 
Q 213 2581 725 3025 
Q 1153 3394 1769 3394 
Q 2453 3394 2887 2945 
Q 3322 2497 3322 1706 
Q 3322 1066 3130 698 
Q 2938 331 2570 128 
Q 2203 -75 1769 -75 
Q 1072 -75 642 372 
Q 213 819 213 1659 
z
M 791 1659 
Q 791 1022 1069 705 
Q 1347 388 1769 388 
Q 2188 388 2466 706 
Q 2744 1025 2744 1678 
Q 2744 2294 2464 2611 
Q 2184 2928 1769 2928 
Q 1347 2928 1069 2612 
Q 791 2297 791 1659 
z
" id="ArialMT-6f" transform="scale(0.015625)"/>
      </defs>
      <use xlink:href="#ArialMT-44"/>
      <use x="72.216797" xlink:href="#ArialMT-69"/>
      <use x="94.433594" xlink:href="#ArialMT-6d"/>
      <use x="177.734375" xlink:href="#ArialMT-65"/>
      <use x="233.349609" xlink:href="#ArialMT-6e"/>
      <use x="288.964844" xlink:href="#ArialMT-73"/>
      <use x="338.964844" xlink:href="#ArialMT-69"/>
      <use x="361.181641" xlink:href="#ArialMT-6f"/>
      <use x="416.796875" xlink:href="#ArialMT-6e"/>
     </g>
    </g>
   </g>
   <g id="matplotlib.axis_2">
    <g id="ytick_1">
     <g id="line2d_10">
      <path clip-path="url(#p1d9650e8c3)" d="M 37.893814 95.45496 
L 242.158118 95.45496 
" style="fill:none;stroke:#ffffff;stroke-linecap:round;"/>
     </g>
     <g id="text_11">
      <!-- $\mathdefault{10^{0}}$ -->
      <g style="fill:#262626;" transform="translate(20.543814 98.033085)scale(0.05 -0.05)">
       <use transform="translate(0 0.99375)" xlink:href="#ArialMT-31"/>
       <use transform="translate(55.615234 0.99375)" xlink:href="#ArialMT-30"/>
       <use transform="translate(112.972813 70.6875)scale(0.7)" xlink:href="#ArialMT-30"/>
      </g>
     </g>
    </g>
    <g id="ytick_2">
     <g id="line2d_11">
      <path clip-path="url(#p1d9650e8c3)" d="M 37.893814 77.933512 
L 242.158118 77.933512 
" style="fill:none;stroke:#ffffff;stroke-linecap:round;"/>
     </g>
     <g id="text_12">
      <!-- $\mathdefault{10^{1}}$ -->
      <g style="fill:#262626;" transform="translate(20.543814 80.511637)scale(0.05 -0.05)">
       <use transform="translate(0 0.99375)" xlink:href="#ArialMT-31"/>
       <use transform="translate(55.615234 0.99375)" xlink:href="#ArialMT-30"/>
       <use transform="translate(112.972813 70.6875)scale(0.7)" xlink:href="#ArialMT-31"/>
      </g>
     </g>
    </g>
    <g id="ytick_3">
     <g id="line2d_12">
      <path clip-path="url(#p1d9650e8c3)" d="M 37.893814 60.412065 
L 242.158118 60.412065 
" style="fill:none;stroke:#ffffff;stroke-linecap:round;"/>
     </g>
     <g id="text_13">
      <!-- $\mathdefault{10^{2}}$ -->
      <g style="fill:#262626;" transform="translate(20.543814 62.99019)scale(0.05 -0.05)">
       <use transform="translate(0 0.99375)" xlink:href="#ArialMT-31"/>
       <use transform="translate(55.615234 0.99375)" xlink:href="#ArialMT-30"/>
       <use transform="translate(112.972813 70.6875)scale(0.7)" xlink:href="#ArialMT-32"/>
      </g>
     </g>
    </g>
    <g id="ytick_4">
     <g id="line2d_13">
      <path clip-path="url(#p1d9650e8c3)" d="M 37.893814 42.890617 
L 242.158118 42.890617 
" style="fill:none;stroke:#ffffff;stroke-linecap:round;"/>
     </g>
     <g id="text_14">
      <!-- $\mathdefault{10^{3}}$ -->
      <g style="fill:#262626;" transform="translate(20.543814 45.468742)scale(0.05 -0.05)">
       <defs>
        <path d="M 269 1209 
L 831 1284 
Q 928 806 1161 595 
Q 1394 384 1728 384 
Q 2125 384 2398 659 
Q 2672 934 2672 1341 
Q 2672 1728 2419 1979 
Q 2166 2231 1775 2231 
Q 1616 2231 1378 2169 
L 1441 2663 
Q 1497 2656 1531 2656 
Q 1891 2656 2178 2843 
Q 2466 3031 2466 3422 
Q 2466 3731 2256 3934 
Q 2047 4138 1716 4138 
Q 1388 4138 1169 3931 
Q 950 3725 888 3313 
L 325 3413 
Q 428 3978 793 4289 
Q 1159 4600 1703 4600 
Q 2078 4600 2393 4439 
Q 2709 4278 2876 4000 
Q 3044 3722 3044 3409 
Q 3044 3113 2884 2869 
Q 2725 2625 2413 2481 
Q 2819 2388 3044 2092 
Q 3269 1797 3269 1353 
Q 3269 753 2831 336 
Q 2394 -81 1725 -81 
Q 1122 -81 723 278 
Q 325 638 269 1209 
z
" id="ArialMT-33" transform="scale(0.015625)"/>
       </defs>
       <use transform="translate(0 0.99375)" xlink:href="#ArialMT-31"/>
       <use transform="translate(55.615234 0.99375)" xlink:href="#ArialMT-30"/>
       <use transform="translate(112.972813 70.6875)scale(0.7)" xlink:href="#ArialMT-33"/>
      </g>
     </g>
    </g>
    <g id="ytick_5">
     <g id="line2d_14">
      <path clip-path="url(#p1d9650e8c3)" d="M 37.893814 25.369169 
L 242.158118 25.369169 
" style="fill:none;stroke:#ffffff;stroke-linecap:round;"/>
     </g>
     <g id="text_15">
      <!-- $\mathdefault{10^{4}}$ -->
      <g style="fill:#262626;" transform="translate(20.543814 27.922294)scale(0.05 -0.05)">
       <defs>
        <path d="M 2069 0 
L 2069 1097 
L 81 1097 
L 81 1613 
L 2172 4581 
L 2631 4581 
L 2631 1613 
L 3250 1613 
L 3250 1097 
L 2631 1097 
L 2631 0 
L 2069 0 
z
M 2069 1613 
L 2069 3678 
L 634 1613 
L 2069 1613 
z
" id="ArialMT-34" transform="scale(0.015625)"/>
       </defs>
       <use transform="translate(0 0.201563)" xlink:href="#ArialMT-31"/>
       <use transform="translate(55.615234 0.201563)" xlink:href="#ArialMT-30"/>
       <use transform="translate(112.972813 69.895313)scale(0.7)" xlink:href="#ArialMT-34"/>
      </g>
     </g>
    </g>
    <g id="ytick_6"/>
    <g id="ytick_7"/>
    <g id="ytick_8"/>
    <g id="ytick_9"/>
    <g id="ytick_10"/>
    <g id="ytick_11"/>
    <g id="ytick_12"/>
    <g id="ytick_13"/>
    <g id="ytick_14"/>
    <g id="ytick_15"/>
    <g id="ytick_16"/>
    <g id="ytick_17"/>
    <g id="ytick_18"/>
    <g id="ytick_19"/>
    <g id="ytick_20"/>
    <g id="ytick_21"/>
    <g id="ytick_22"/>
    <g id="ytick_23"/>
    <g id="ytick_24"/>
    <g id="ytick_25"/>
    <g id="ytick_26"/>
    <g id="ytick_27"/>
    <g id="ytick_28"/>
    <g id="ytick_29"/>
    <g id="ytick_30"/>
    <g id="ytick_31"/>
    <g id="ytick_32"/>
    <g id="ytick_33"/>
    <g id="ytick_34"/>
    <g id="ytick_35"/>
    <g id="ytick_36"/>
    <g id="ytick_37"/>
    <g id="ytick_38"/>
    <g id="ytick_39"/>
    <g id="ytick_40"/>
    <g id="ytick_41"/>
    <g id="ytick_42"/>
    <g id="ytick_43"/>
    <g id="ytick_44"/>
    <g id="text_16">
     <!-- Nodes Explored -->
     <g style="fill:#262626;" transform="translate(17.351314 87.300675)rotate(-90)scale(0.06 -0.06)">
      <defs>
       <path d="M 488 0 
L 488 4581 
L 1109 4581 
L 3516 984 
L 3516 4581 
L 4097 4581 
L 4097 0 
L 3475 0 
L 1069 3600 
L 1069 0 
L 488 0 
z
" id="ArialMT-4e" transform="scale(0.015625)"/>
       <path d="M 2575 0 
L 2575 419 
Q 2259 -75 1647 -75 
Q 1250 -75 917 144 
Q 584 363 401 755 
Q 219 1147 219 1656 
Q 219 2153 384 2558 
Q 550 2963 881 3178 
Q 1213 3394 1622 3394 
Q 1922 3394 2156 3267 
Q 2391 3141 2538 2938 
L 2538 4581 
L 3097 4581 
L 3097 0 
L 2575 0 
z
M 797 1656 
Q 797 1019 1065 703 
Q 1334 388 1700 388 
Q 2069 388 2326 689 
Q 2584 991 2584 1609 
Q 2584 2291 2321 2609 
Q 2059 2928 1675 2928 
Q 1300 2928 1048 2622 
Q 797 2316 797 1656 
z
" id="ArialMT-64" transform="scale(0.015625)"/>
       <path id="ArialMT-20" transform="scale(0.015625)"/>
       <path d="M 506 0 
L 506 4581 
L 3819 4581 
L 3819 4041 
L 1113 4041 
L 1113 2638 
L 3647 2638 
L 3647 2100 
L 1113 2100 
L 1113 541 
L 3925 541 
L 3925 0 
L 506 0 
z
" id="ArialMT-45" transform="scale(0.015625)"/>
       <path d="M 47 0 
L 1259 1725 
L 138 3319 
L 841 3319 
L 1350 2541 
Q 1494 2319 1581 2169 
Q 1719 2375 1834 2534 
L 2394 3319 
L 3066 3319 
L 1919 1756 
L 3153 0 
L 2463 0 
L 1781 1031 
L 1600 1309 
L 728 0 
L 47 0 
z
" id="ArialMT-78" transform="scale(0.015625)"/>
       <path d="M 422 -1272 
L 422 3319 
L 934 3319 
L 934 2888 
Q 1116 3141 1344 3267 
Q 1572 3394 1897 3394 
Q 2322 3394 2647 3175 
Q 2972 2956 3137 2557 
Q 3303 2159 3303 1684 
Q 3303 1175 3120 767 
Q 2938 359 2589 142 
Q 2241 -75 1856 -75 
Q 1575 -75 1351 44 
Q 1128 163 984 344 
L 984 -1272 
L 422 -1272 
z
M 931 1641 
Q 931 1000 1190 694 
Q 1450 388 1819 388 
Q 2194 388 2461 705 
Q 2728 1022 2728 1688 
Q 2728 2322 2467 2637 
Q 2206 2953 1844 2953 
Q 1484 2953 1207 2617 
Q 931 2281 931 1641 
z
" id="ArialMT-70" transform="scale(0.015625)"/>
       <path d="M 409 0 
L 409 4581 
L 972 4581 
L 972 0 
L 409 0 
z
" id="ArialMT-6c" transform="scale(0.015625)"/>
       <path d="M 416 0 
L 416 3319 
L 922 3319 
L 922 2816 
Q 1116 3169 1280 3281 
Q 1444 3394 1641 3394 
Q 1925 3394 2219 3213 
L 2025 2691 
Q 1819 2813 1613 2813 
Q 1428 2813 1281 2702 
Q 1134 2591 1072 2394 
Q 978 2094 978 1738 
L 978 0 
L 416 0 
z
" id="ArialMT-72" transform="scale(0.015625)"/>
      </defs>
      <use xlink:href="#ArialMT-4e"/>
      <use x="72.216797" xlink:href="#ArialMT-6f"/>
      <use x="127.832031" xlink:href="#ArialMT-64"/>
      <use x="183.447266" xlink:href="#ArialMT-65"/>
      <use x="239.0625" xlink:href="#ArialMT-73"/>
      <use x="289.0625" xlink:href="#ArialMT-20"/>
      <use x="316.845703" xlink:href="#ArialMT-45"/>
      <use x="383.544922" xlink:href="#ArialMT-78"/>
      <use x="433.544922" xlink:href="#ArialMT-70"/>
      <use x="489.160156" xlink:href="#ArialMT-6c"/>
      <use x="511.376953" xlink:href="#ArialMT-6f"/>
      <use x="566.992188" xlink:href="#ArialMT-72"/>
      <use x="600.292969" xlink:href="#ArialMT-65"/>
      <use x="655.908203" xlink:href="#ArialMT-64"/>
     </g>
    </g>
   </g>
   <g id="line2d_15">
    <path clip-path="url(#p1d9650e8c3)" d="M 47.178555 103.443548 
L 51.939961 100.883173 
L 56.701366 97.954701 
L 61.462772 93.941811 
L 66.224178 99.342071 
L 70.985584 83.269114 
L 75.746989 97.152963 
L 80.508395 86.723837 
L 85.269801 100.286046 
L 90.031206 72.129974 
L 94.792612 99.216292 
L 99.554018 96.691642 
L 104.315423 98.061129 
L 109.076829 98.278557 
L 113.838235 100.143808 
L 118.599641 93.818077 
L 123.361046 97.345619 
L 128.122452 84.338 
L 132.883858 97.443807 
L 137.645263 87.326883 
L 142.406669 92.120073 
L 147.168075 97.746209 
L 151.92948 86.55659 
L 156.690886 98.732989 
L 161.452292 97.849741 
L 166.213698 94.195483 
L 170.975103 97.248681 
L 175.736509 99.216292 
L 180.497915 80.528971 
L 185.25932 98.389646 
L 190.020726 95.686738 
L 194.782132 90.982216 
L 199.543537 81.897101 
L 204.304943 92.471728 
L 209.066349 93.34233 
L 213.827754 97.248681 
L 218.58916 86.346821 
L 223.350566 99.092558 
L 228.111972 98.502381 
L 232.873377 94.940113 
" style="fill:none;stroke:#4c72b0;stroke-linecap:round;stroke-width:1.5;"/>
    <defs>
     <path d="M 0 1 
C 0.265203 1 0.51958 0.894634 0.707107 0.707107 
C 0.894634 0.51958 1 0.265203 1 0 
C 1 -0.265203 0.894634 -0.51958 0.707107 -0.707107 
C 0.51958 -0.894634 0.265203 -1 0 -1 
C -0.265203 -1 -0.51958 -0.894634 -0.707107 -0.707107 
C -0.894634 -0.51958 -1 -0.265203 -1 0 
C -1 0.265203 -0.894634 0.51958 -0.707107 0.707107 
C -0.51958 0.894634 -0.265203 1 0 1 
z
" id="m393399bdca" style="stroke:#4c72b0;"/>
    </defs>
    <g clip-path="url(#p1d9650e8c3)">
     <use style="fill:#4c72b0;stroke:#4c72b0;" x="47.178555" xlink:href="#m393399bdca" y="103.443548"/>
     <use style="fill:#4c72b0;stroke:#4c72b0;" x="51.939961" xlink:href="#m393399bdca" y="100.883173"/>
     <use style="fill:#4c72b0;stroke:#4c72b0;" x="56.701366" xlink:href="#m393399bdca" y="97.954701"/>
     <use style="fill:#4c72b0;stroke:#4c72b0;" x="61.462772" xlink:href="#m393399bdca" y="93.941811"/>
     <use style="fill:#4c72b0;stroke:#4c72b0;" x="66.224178" xlink:href="#m393399bdca" y="99.342071"/>
     <use style="fill:#4c72b0;stroke:#4c72b0;" x="70.985584" xlink:href="#m393399bdca" y="83.269114"/>
     <use style="fill:#4c72b0;stroke:#4c72b0;" x="75.746989" xlink:href="#m393399bdca" y="97.152963"/>
     <use style="fill:#4c72b0;stroke:#4c72b0;" x="80.508395" xlink:href="#m393399bdca" y="86.723837"/>
     <use style="fill:#4c72b0;stroke:#4c72b0;" x="85.269801" xlink:href="#m393399bdca" y="100.286046"/>
     <use style="fill:#4c72b0;stroke:#4c72b0;" x="90.031206" xlink:href="#m393399bdca" y="72.129974"/>
     <use style="fill:#4c72b0;stroke:#4c72b0;" x="94.792612" xlink:href="#m393399bdca" y="99.216292"/>
     <use style="fill:#4c72b0;stroke:#4c72b0;" x="99.554018" xlink:href="#m393399bdca" y="96.691642"/>
     <use style="fill:#4c72b0;stroke:#4c72b0;" x="104.315423" xlink:href="#m393399bdca" y="98.061129"/>
     <use style="fill:#4c72b0;stroke:#4c72b0;" x="109.076829" xlink:href="#m393399bdca" y="98.278557"/>
     <use style="fill:#4c72b0;stroke:#4c72b0;" x="113.838235" xlink:href="#m393399bdca" y="100.143808"/>
     <use style="fill:#4c72b0;stroke:#4c72b0;" x="118.599641" xlink:href="#m393399bdca" y="93.818077"/>
     <use style="fill:#4c72b0;stroke:#4c72b0;" x="123.361046" xlink:href="#m393399bdca" y="97.345619"/>
     <use style="fill:#4c72b0;stroke:#4c72b0;" x="128.122452" xlink:href="#m393399bdca" y="84.338"/>
     <use style="fill:#4c72b0;stroke:#4c72b0;" x="132.883858" xlink:href="#m393399bdca" y="97.443807"/>
     <use style="fill:#4c72b0;stroke:#4c72b0;" x="137.645263" xlink:href="#m393399bdca" y="87.326883"/>
     <use style="fill:#4c72b0;stroke:#4c72b0;" x="142.406669" xlink:href="#m393399bdca" y="92.120073"/>
     <use style="fill:#4c72b0;stroke:#4c72b0;" x="147.168075" xlink:href="#m393399bdca" y="97.746209"/>
     <use style="fill:#4c72b0;stroke:#4c72b0;" x="151.92948" xlink:href="#m393399bdca" y="86.55659"/>
     <use style="fill:#4c72b0;stroke:#4c72b0;" x="156.690886" xlink:href="#m393399bdca" y="98.732989"/>
     <use style="fill:#4c72b0;stroke:#4c72b0;" x="161.452292" xlink:href="#m393399bdca" y="97.849741"/>
     <use style="fill:#4c72b0;stroke:#4c72b0;" x="166.213698" xlink:href="#m393399bdca" y="94.195483"/>
     <use style="fill:#4c72b0;stroke:#4c72b0;" x="170.975103" xlink:href="#m393399bdca" y="97.248681"/>
     <use style="fill:#4c72b0;stroke:#4c72b0;" x="175.736509" xlink:href="#m393399bdca" y="99.216292"/>
     <use style="fill:#4c72b0;stroke:#4c72b0;" x="180.497915" xlink:href="#m393399bdca" y="80.528971"/>
     <use style="fill:#4c72b0;stroke:#4c72b0;" x="185.25932" xlink:href="#m393399bdca" y="98.389646"/>
     <use style="fill:#4c72b0;stroke:#4c72b0;" x="190.020726" xlink:href="#m393399bdca" y="95.686738"/>
     <use style="fill:#4c72b0;stroke:#4c72b0;" x="194.782132" xlink:href="#m393399bdca" y="90.982216"/>
     <use style="fill:#4c72b0;stroke:#4c72b0;" x="199.543537" xlink:href="#m393399bdca" y="81.897101"/>
     <use style="fill:#4c72b0;stroke:#4c72b0;" x="204.304943" xlink:href="#m393399bdca" y="92.471728"/>
     <use style="fill:#4c72b0;stroke:#4c72b0;" x="209.066349" xlink:href="#m393399bdca" y="93.34233"/>
     <use style="fill:#4c72b0;stroke:#4c72b0;" x="213.827754" xlink:href="#m393399bdca" y="97.248681"/>
     <use style="fill:#4c72b0;stroke:#4c72b0;" x="218.58916" xlink:href="#m393399bdca" y="86.346821"/>
     <use style="fill:#4c72b0;stroke:#4c72b0;" x="223.350566" xlink:href="#m393399bdca" y="99.092558"/>
     <use style="fill:#4c72b0;stroke:#4c72b0;" x="228.111972" xlink:href="#m393399bdca" y="98.502381"/>
     <use style="fill:#4c72b0;stroke:#4c72b0;" x="232.873377" xlink:href="#m393399bdca" y="94.940113"/>
    </g>
   </g>
   <g id="line2d_16">
    <path clip-path="url(#p1d9650e8c3)" d="M 56.701366 66.34423 
L 61.462772 66.112186 
L 66.224178 71.255824 
L 70.985584 74.672624 
L 75.746989 72.176254 
L 80.508395 67.829125 
L 85.269801 64.42449 
L 90.031206 65.337051 
L 94.792612 63.401782 
L 99.554018 71.536196 
L 104.315423 63.19387 
L 109.076829 62.873853 
L 113.838235 60.707653 
L 118.599641 63.84502 
L 123.361046 61.271514 
L 128.122452 61.044073 
L 132.883858 59.305004 
L 137.645263 60.337101 
L 142.406669 56.664876 
L 147.168075 59.423692 
L 151.92948 56.593595 
L 156.690886 59.128765 
L 161.452292 56.758458 
L 166.213698 55.262253 
L 170.975103 57.67122 
L 175.736509 57.204405 
L 180.497915 53.829574 
L 185.25932 56.43268 
L 190.020726 56.326966 
L 194.782132 55.493134 
L 199.543537 55.598714 
L 204.304943 53.461832 
L 209.066349 54.50629 
L 213.827754 53.787719 
L 218.58916 54.385737 
L 223.350566 53.482312 
L 228.111972 53.174275 
L 232.873377 52.898891 
" style="fill:none;stroke:#dd8452;stroke-linecap:round;stroke-width:1.5;"/>
    <defs>
     <path d="M 0 1 
C 0.265203 1 0.51958 0.894634 0.707107 0.707107 
C 0.894634 0.51958 1 0.265203 1 0 
C 1 -0.265203 0.894634 -0.51958 0.707107 -0.707107 
C 0.51958 -0.894634 0.265203 -1 0 -1 
C -0.265203 -1 -0.51958 -0.894634 -0.707107 -0.707107 
C -0.894634 -0.51958 -1 -0.265203 -1 0 
C -1 0.265203 -0.894634 0.51958 -0.707107 0.707107 
C -0.51958 0.894634 -0.265203 1 0 1 
z
" id="mbe997c4335" style="stroke:#dd8452;"/>
    </defs>
    <g clip-path="url(#p1d9650e8c3)">
     <use style="fill:#dd8452;stroke:#dd8452;" x="56.701366" xlink:href="#mbe997c4335" y="66.34423"/>
     <use style="fill:#dd8452;stroke:#dd8452;" x="61.462772" xlink:href="#mbe997c4335" y="66.112186"/>
     <use style="fill:#dd8452;stroke:#dd8452;" x="66.224178" xlink:href="#mbe997c4335" y="71.255824"/>
     <use style="fill:#dd8452;stroke:#dd8452;" x="70.985584" xlink:href="#mbe997c4335" y="74.672624"/>
     <use style="fill:#dd8452;stroke:#dd8452;" x="75.746989" xlink:href="#mbe997c4335" y="72.176254"/>
     <use style="fill:#dd8452;stroke:#dd8452;" x="80.508395" xlink:href="#mbe997c4335" y="67.829125"/>
     <use style="fill:#dd8452;stroke:#dd8452;" x="85.269801" xlink:href="#mbe997c4335" y="64.42449"/>
     <use style="fill:#dd8452;stroke:#dd8452;" x="90.031206" xlink:href="#mbe997c4335" y="65.337051"/>
     <use style="fill:#dd8452;stroke:#dd8452;" x="94.792612" xlink:href="#mbe997c4335" y="63.401782"/>
     <use style="fill:#dd8452;stroke:#dd8452;" x="99.554018" xlink:href="#mbe997c4335" y="71.536196"/>
     <use style="fill:#dd8452;stroke:#dd8452;" x="104.315423" xlink:href="#mbe997c4335" y="63.19387"/>
     <use style="fill:#dd8452;stroke:#dd8452;" x="109.076829" xlink:href="#mbe997c4335" y="62.873853"/>
     <use style="fill:#dd8452;stroke:#dd8452;" x="113.838235" xlink:href="#mbe997c4335" y="60.707653"/>
     <use style="fill:#dd8452;stroke:#dd8452;" x="118.599641" xlink:href="#mbe997c4335" y="63.84502"/>
     <use style="fill:#dd8452;stroke:#dd8452;" x="123.361046" xlink:href="#mbe997c4335" y="61.271514"/>
     <use style="fill:#dd8452;stroke:#dd8452;" x="128.122452" xlink:href="#mbe997c4335" y="61.044073"/>
     <use style="fill:#dd8452;stroke:#dd8452;" x="132.883858" xlink:href="#mbe997c4335" y="59.305004"/>
     <use style="fill:#dd8452;stroke:#dd8452;" x="137.645263" xlink:href="#mbe997c4335" y="60.337101"/>
     <use style="fill:#dd8452;stroke:#dd8452;" x="142.406669" xlink:href="#mbe997c4335" y="56.664876"/>
     <use style="fill:#dd8452;stroke:#dd8452;" x="147.168075" xlink:href="#mbe997c4335" y="59.423692"/>
     <use style="fill:#dd8452;stroke:#dd8452;" x="151.92948" xlink:href="#mbe997c4335" y="56.593595"/>
     <use style="fill:#dd8452;stroke:#dd8452;" x="156.690886" xlink:href="#mbe997c4335" y="59.128765"/>
     <use style="fill:#dd8452;stroke:#dd8452;" x="161.452292" xlink:href="#mbe997c4335" y="56.758458"/>
     <use style="fill:#dd8452;stroke:#dd8452;" x="166.213698" xlink:href="#mbe997c4335" y="55.262253"/>
     <use style="fill:#dd8452;stroke:#dd8452;" x="170.975103" xlink:href="#mbe997c4335" y="57.67122"/>
     <use style="fill:#dd8452;stroke:#dd8452;" x="175.736509" xlink:href="#mbe997c4335" y="57.204405"/>
     <use style="fill:#dd8452;stroke:#dd8452;" x="180.497915" xlink:href="#mbe997c4335" y="53.829574"/>
     <use style="fill:#dd8452;stroke:#dd8452;" x="185.25932" xlink:href="#mbe997c4335" y="56.43268"/>
     <use style="fill:#dd8452;stroke:#dd8452;" x="190.020726" xlink:href="#mbe997c4335" y="56.326966"/>
     <use style="fill:#dd8452;stroke:#dd8452;" x="194.782132" xlink:href="#mbe997c4335" y="55.493134"/>
     <use style="fill:#dd8452;stroke:#dd8452;" x="199.543537" xlink:href="#mbe997c4335" y="55.598714"/>
     <use style="fill:#dd8452;stroke:#dd8452;" x="204.304943" xlink:href="#mbe997c4335" y="53.461832"/>
     <use style="fill:#dd8452;stroke:#dd8452;" x="209.066349" xlink:href="#mbe997c4335" y="54.50629"/>
     <use style="fill:#dd8452;stroke:#dd8452;" x="213.827754" xlink:href="#mbe997c4335" y="53.787719"/>
     <use style="fill:#dd8452;stroke:#dd8452;" x="218.58916" xlink:href="#mbe997c4335" y="54.385737"/>
     <use style="fill:#dd8452;stroke:#dd8452;" x="223.350566" xlink:href="#mbe997c4335" y="53.482312"/>
     <use style="fill:#dd8452;stroke:#dd8452;" x="228.111972" xlink:href="#mbe997c4335" y="53.174275"/>
     <use style="fill:#dd8452;stroke:#dd8452;" x="232.873377" xlink:href="#mbe997c4335" y="52.898891"/>
    </g>
   </g>
   <g id="line2d_17">
    <path clip-path="url(#p1d9650e8c3)" d="M 66.224178 73.855534 
L 70.985584 66.720062 
L 75.746989 65.992425 
L 80.508395 62.956324 
L 85.269801 63.221339 
L 90.031206 56.716672 
L 94.792612 58.350334 
L 99.554018 58.543704 
L 104.315423 55.38546 
L 109.076829 53.973824 
L 113.838235 55.548752 
L 118.599641 52.932987 
L 123.361046 54.787362 
L 128.122452 51.66381 
L 132.883858 50.210484 
L 137.645263 50.251214 
L 142.406669 49.891118 
L 147.168075 48.749793 
L 151.92948 48.95467 
L 156.690886 47.404364 
L 161.452292 49.177202 
L 166.213698 48.432103 
L 170.975103 47.64357 
L 175.736509 45.831908 
L 180.497915 48.152629 
L 185.25932 48.351668 
L 190.020726 46.76417 
L 194.782132 46.190334 
L 199.543537 45.887552 
L 204.304943 46.071863 
L 209.066349 43.627696 
L 213.827754 28.46874 
L 218.58916 46.906524 
L 223.350566 45.622028 
L 228.111972 46.045323 
L 232.873377 45.830677 
" style="fill:none;stroke:#55a868;stroke-linecap:round;stroke-width:1.5;"/>
    <defs>
     <path d="M 0 1 
C 0.265203 1 0.51958 0.894634 0.707107 0.707107 
C 0.894634 0.51958 1 0.265203 1 0 
C 1 -0.265203 0.894634 -0.51958 0.707107 -0.707107 
C 0.51958 -0.894634 0.265203 -1 0 -1 
C -0.265203 -1 -0.51958 -0.894634 -0.707107 -0.707107 
C -0.894634 -0.51958 -1 -0.265203 -1 0 
C -1 0.265203 -0.894634 0.51958 -0.707107 0.707107 
C -0.51958 0.894634 -0.265203 1 0 1 
z
" id="m1e8978ace5" style="stroke:#55a868;"/>
    </defs>
    <g clip-path="url(#p1d9650e8c3)">
     <use style="fill:#55a868;stroke:#55a868;" x="66.224178" xlink:href="#m1e8978ace5" y="73.855534"/>
     <use style="fill:#55a868;stroke:#55a868;" x="70.985584" xlink:href="#m1e8978ace5" y="66.720062"/>
     <use style="fill:#55a868;stroke:#55a868;" x="75.746989" xlink:href="#m1e8978ace5" y="65.992425"/>
     <use style="fill:#55a868;stroke:#55a868;" x="80.508395" xlink:href="#m1e8978ace5" y="62.956324"/>
     <use style="fill:#55a868;stroke:#55a868;" x="85.269801" xlink:href="#m1e8978ace5" y="63.221339"/>
     <use style="fill:#55a868;stroke:#55a868;" x="90.031206" xlink:href="#m1e8978ace5" y="56.716672"/>
     <use style="fill:#55a868;stroke:#55a868;" x="94.792612" xlink:href="#m1e8978ace5" y="58.350334"/>
     <use style="fill:#55a868;stroke:#55a868;" x="99.554018" xlink:href="#m1e8978ace5" y="58.543704"/>
     <use style="fill:#55a868;stroke:#55a868;" x="104.315423" xlink:href="#m1e8978ace5" y="55.38546"/>
     <use style="fill:#55a868;stroke:#55a868;" x="109.076829" xlink:href="#m1e8978ace5" y="53.973824"/>
     <use style="fill:#55a868;stroke:#55a868;" x="113.838235" xlink:href="#m1e8978ace5" y="55.548752"/>
     <use style="fill:#55a868;stroke:#55a868;" x="118.599641" xlink:href="#m1e8978ace5" y="52.932987"/>
     <use style="fill:#55a868;stroke:#55a868;" x="123.361046" xlink:href="#m1e8978ace5" y="54.787362"/>
     <use style="fill:#55a868;stroke:#55a868;" x="128.122452" xlink:href="#m1e8978ace5" y="51.66381"/>
     <use style="fill:#55a868;stroke:#55a868;" x="132.883858" xlink:href="#m1e8978ace5" y="50.210484"/>
     <use style="fill:#55a868;stroke:#55a868;" x="137.645263" xlink:href="#m1e8978ace5" y="50.251214"/>
     <use style="fill:#55a868;stroke:#55a868;" x="142.406669" xlink:href="#m1e8978ace5" y="49.891118"/>
     <use style="fill:#55a868;stroke:#55a868;" x="147.168075" xlink:href="#m1e8978ace5" y="48.749793"/>
     <use style="fill:#55a868;stroke:#55a868;" x="151.92948" xlink:href="#m1e8978ace5" y="48.95467"/>
     <use style="fill:#55a868;stroke:#55a868;" x="156.690886" xlink:href="#m1e8978ace5" y="47.404364"/>
     <use style="fill:#55a868;stroke:#55a868;" x="161.452292" xlink:href="#m1e8978ace5" y="49.177202"/>
     <use style="fill:#55a868;stroke:#55a868;" x="166.213698" xlink:href="#m1e8978ace5" y="48.432103"/>
     <use style="fill:#55a868;stroke:#55a868;" x="170.975103" xlink:href="#m1e8978ace5" y="47.64357"/>
     <use style="fill:#55a868;stroke:#55a868;" x="175.736509" xlink:href="#m1e8978ace5" y="45.831908"/>
     <use style="fill:#55a868;stroke:#55a868;" x="180.497915" xlink:href="#m1e8978ace5" y="48.152629"/>
     <use style="fill:#55a868;stroke:#55a868;" x="185.25932" xlink:href="#m1e8978ace5" y="48.351668"/>
     <use style="fill:#55a868;stroke:#55a868;" x="190.020726" xlink:href="#m1e8978ace5" y="46.76417"/>
     <use style="fill:#55a868;stroke:#55a868;" x="194.782132" xlink:href="#m1e8978ace5" y="46.190334"/>
     <use style="fill:#55a868;stroke:#55a868;" x="199.543537" xlink:href="#m1e8978ace5" y="45.887552"/>
     <use style="fill:#55a868;stroke:#55a868;" x="204.304943" xlink:href="#m1e8978ace5" y="46.071863"/>
     <use style="fill:#55a868;stroke:#55a868;" x="209.066349" xlink:href="#m1e8978ace5" y="43.627696"/>
     <use style="fill:#55a868;stroke:#55a868;" x="213.827754" xlink:href="#m1e8978ace5" y="28.46874"/>
     <use style="fill:#55a868;stroke:#55a868;" x="218.58916" xlink:href="#m1e8978ace5" y="46.906524"/>
     <use style="fill:#55a868;stroke:#55a868;" x="223.350566" xlink:href="#m1e8978ace5" y="45.622028"/>
     <use style="fill:#55a868;stroke:#55a868;" x="228.111972" xlink:href="#m1e8978ace5" y="46.045323"/>
     <use style="fill:#55a868;stroke:#55a868;" x="232.873377" xlink:href="#m1e8978ace5" y="45.830677"/>
    </g>
   </g>
   <g id="line2d_18">
    <path clip-path="url(#p1d9650e8c3)" d="M 85.269801 57.575747 
L 90.031206 54.767041 
L 94.792612 53.631298 
L 99.554018 52.257362 
L 104.315423 53.493033 
L 109.076829 50.327265 
L 113.838235 48.126994 
L 118.599641 49.64834 
L 123.361046 49.315966 
L 128.122452 48.077036 
L 132.883858 47.338003 
" style="fill:none;stroke:#c44e52;stroke-linecap:round;stroke-width:1.5;"/>
    <defs>
     <path d="M 0 1 
C 0.265203 1 0.51958 0.894634 0.707107 0.707107 
C 0.894634 0.51958 1 0.265203 1 0 
C 1 -0.265203 0.894634 -0.51958 0.707107 -0.707107 
C 0.51958 -0.894634 0.265203 -1 0 -1 
C -0.265203 -1 -0.51958 -0.894634 -0.707107 -0.707107 
C -0.894634 -0.51958 -1 -0.265203 -1 0 
C -1 0.265203 -0.894634 0.51958 -0.707107 0.707107 
C -0.51958 0.894634 -0.265203 1 0 1 
z
" id="m033144faf3" style="stroke:#c44e52;"/>
    </defs>
    <g clip-path="url(#p1d9650e8c3)">
     <use style="fill:#c44e52;stroke:#c44e52;" x="85.269801" xlink:href="#m033144faf3" y="57.575747"/>
     <use style="fill:#c44e52;stroke:#c44e52;" x="90.031206" xlink:href="#m033144faf3" y="54.767041"/>
     <use style="fill:#c44e52;stroke:#c44e52;" x="94.792612" xlink:href="#m033144faf3" y="53.631298"/>
     <use style="fill:#c44e52;stroke:#c44e52;" x="99.554018" xlink:href="#m033144faf3" y="52.257362"/>
     <use style="fill:#c44e52;stroke:#c44e52;" x="104.315423" xlink:href="#m033144faf3" y="53.493033"/>
     <use style="fill:#c44e52;stroke:#c44e52;" x="109.076829" xlink:href="#m033144faf3" y="50.327265"/>
     <use style="fill:#c44e52;stroke:#c44e52;" x="113.838235" xlink:href="#m033144faf3" y="48.126994"/>
     <use style="fill:#c44e52;stroke:#c44e52;" x="118.599641" xlink:href="#m033144faf3" y="49.64834"/>
     <use style="fill:#c44e52;stroke:#c44e52;" x="123.361046" xlink:href="#m033144faf3" y="49.315966"/>
     <use style="fill:#c44e52;stroke:#c44e52;" x="128.122452" xlink:href="#m033144faf3" y="48.077036"/>
     <use style="fill:#c44e52;stroke:#c44e52;" x="132.883858" xlink:href="#m033144faf3" y="47.338003"/>
    </g>
   </g>
   <g id="patch_3">
    <path d="M 37.893814 107.192288 
L 37.893814 24.72 
" style="fill:none;stroke:#ffffff;stroke-linecap:square;stroke-linejoin:miter;stroke-width:1.25;"/>
   </g>
   <g id="patch_4">
    <path d="M 242.158118 107.192288 
L 242.158118 24.72 
" style="fill:none;stroke:#ffffff;stroke-linecap:square;stroke-linejoin:miter;stroke-width:1.25;"/>
   </g>
   <g id="patch_5">
    <path d="M 37.893814 107.192288 
L 242.158118 107.192288 
" style="fill:none;stroke:#ffffff;stroke-linecap:square;stroke-linejoin:miter;stroke-width:1.25;"/>
   </g>
   <g id="patch_6">
    <path d="M 37.893814 24.72 
L 242.158118 24.72 
" style="fill:none;stroke:#ffffff;stroke-linecap:square;stroke-linejoin:miter;stroke-width:1.25;"/>
   </g>
   <g id="text_17">
    <!-- Average Nodes Explored vs Dimension -->
    <g style="fill:#262626;" transform="translate(70.509716 18.72)scale(0.08 -0.08)">
     <defs>
      <path d="M -9 0 
L 1750 4581 
L 2403 4581 
L 4278 0 
L 3588 0 
L 3053 1388 
L 1138 1388 
L 634 0 
L -9 0 
z
M 1313 1881 
L 2866 1881 
L 2388 3150 
Q 2169 3728 2063 4100 
Q 1975 3659 1816 3225 
L 1313 1881 
z
" id="ArialMT-41" transform="scale(0.015625)"/>
      <path d="M 1344 0 
L 81 3319 
L 675 3319 
L 1388 1331 
Q 1503 1009 1600 663 
Q 1675 925 1809 1294 
L 2547 3319 
L 3125 3319 
L 1869 0 
L 1344 0 
z
" id="ArialMT-76" transform="scale(0.015625)"/>
      <path d="M 2588 409 
Q 2275 144 1986 34 
Q 1697 -75 1366 -75 
Q 819 -75 525 192 
Q 231 459 231 875 
Q 231 1119 342 1320 
Q 453 1522 633 1644 
Q 813 1766 1038 1828 
Q 1203 1872 1538 1913 
Q 2219 1994 2541 2106 
Q 2544 2222 2544 2253 
Q 2544 2597 2384 2738 
Q 2169 2928 1744 2928 
Q 1347 2928 1158 2789 
Q 969 2650 878 2297 
L 328 2372 
Q 403 2725 575 2942 
Q 747 3159 1072 3276 
Q 1397 3394 1825 3394 
Q 2250 3394 2515 3294 
Q 2781 3194 2906 3042 
Q 3031 2891 3081 2659 
Q 3109 2516 3109 2141 
L 3109 1391 
Q 3109 606 3145 398 
Q 3181 191 3288 0 
L 2700 0 
Q 2613 175 2588 409 
z
M 2541 1666 
Q 2234 1541 1622 1453 
Q 1275 1403 1131 1340 
Q 988 1278 909 1158 
Q 831 1038 831 891 
Q 831 666 1001 516 
Q 1172 366 1500 366 
Q 1825 366 2078 508 
Q 2331 650 2450 897 
Q 2541 1088 2541 1459 
L 2541 1666 
z
" id="ArialMT-61" transform="scale(0.015625)"/>
      <path d="M 319 -275 
L 866 -356 
Q 900 -609 1056 -725 
Q 1266 -881 1628 -881 
Q 2019 -881 2231 -725 
Q 2444 -569 2519 -288 
Q 2563 -116 2559 434 
Q 2191 0 1641 0 
Q 956 0 581 494 
Q 206 988 206 1678 
Q 206 2153 378 2554 
Q 550 2956 876 3175 
Q 1203 3394 1644 3394 
Q 2231 3394 2613 2919 
L 2613 3319 
L 3131 3319 
L 3131 450 
Q 3131 -325 2973 -648 
Q 2816 -972 2473 -1159 
Q 2131 -1347 1631 -1347 
Q 1038 -1347 672 -1080 
Q 306 -813 319 -275 
z
M 784 1719 
Q 784 1066 1043 766 
Q 1303 466 1694 466 
Q 2081 466 2343 764 
Q 2606 1063 2606 1700 
Q 2606 2309 2336 2618 
Q 2066 2928 1684 2928 
Q 1309 2928 1046 2623 
Q 784 2319 784 1719 
z
" id="ArialMT-67" transform="scale(0.015625)"/>
     </defs>
     <use xlink:href="#ArialMT-41"/>
     <use x="64.949219" xlink:href="#ArialMT-76"/>
     <use x="114.949219" xlink:href="#ArialMT-65"/>
     <use x="170.564453" xlink:href="#ArialMT-72"/>
     <use x="203.865234" xlink:href="#ArialMT-61"/>
     <use x="259.480469" xlink:href="#ArialMT-67"/>
     <use x="315.095703" xlink:href="#ArialMT-65"/>
     <use x="370.710938" xlink:href="#ArialMT-20"/>
     <use x="398.494141" xlink:href="#ArialMT-4e"/>
     <use x="470.710938" xlink:href="#ArialMT-6f"/>
     <use x="526.326172" xlink:href="#ArialMT-64"/>
     <use x="581.941406" xlink:href="#ArialMT-65"/>
     <use x="637.556641" xlink:href="#ArialMT-73"/>
     <use x="687.556641" xlink:href="#ArialMT-20"/>
     <use x="715.339844" xlink:href="#ArialMT-45"/>
     <use x="782.039062" xlink:href="#ArialMT-78"/>
     <use x="832.039062" xlink:href="#ArialMT-70"/>
     <use x="887.654297" xlink:href="#ArialMT-6c"/>
     <use x="909.871094" xlink:href="#ArialMT-6f"/>
     <use x="965.486328" xlink:href="#ArialMT-72"/>
     <use x="998.787109" xlink:href="#ArialMT-65"/>
     <use x="1054.402344" xlink:href="#ArialMT-64"/>
     <use x="1110.017578" xlink:href="#ArialMT-20"/>
     <use x="1137.800781" xlink:href="#ArialMT-76"/>
     <use x="1187.800781" xlink:href="#ArialMT-73"/>
     <use x="1237.800781" xlink:href="#ArialMT-20"/>
     <use x="1265.583984" xlink:href="#ArialMT-44"/>
     <use x="1337.800781" xlink:href="#ArialMT-69"/>
     <use x="1360.017578" xlink:href="#ArialMT-6d"/>
     <use x="1443.318359" xlink:href="#ArialMT-65"/>
     <use x="1498.933594" xlink:href="#ArialMT-6e"/>
     <use x="1554.548828" xlink:href="#ArialMT-73"/>
     <use x="1604.548828" xlink:href="#ArialMT-69"/>
     <use x="1626.765625" xlink:href="#ArialMT-6f"/>
     <use x="1682.380859" xlink:href="#ArialMT-6e"/>
    </g>
   </g>
   <g id="legend_1">
    <g id="patch_7">
     <path d="M 41.043814 54.211875 
L 77.953658 54.211875 
Q 78.853658 54.211875 78.853658 53.311875 
L 78.853658 27.87 
Q 78.853658 26.97 77.953658 26.97 
L 41.043814 26.97 
Q 40.143814 26.97 40.143814 27.87 
L 40.143814 53.311875 
Q 40.143814 54.211875 41.043814 54.211875 
z
" style="fill:#ffffff;opacity:0.8;stroke:#cccccc;stroke-linejoin:miter;"/>
    </g>
    <g id="line2d_19">
     <path d="M 41.943814 30.470859 
L 50.943814 30.470859 
" style="fill:none;stroke:#4c72b0;stroke-linecap:round;stroke-width:1.5;"/>
    </g>
    <g id="line2d_20">
     <g>
      <use style="fill:#4c72b0;stroke:#4c72b0;" x="46.443814" xlink:href="#m393399bdca" y="30.470859"/>
     </g>
    </g>
    <g id="text_18">
     <!-- Sparsity 5 -->
     <g style="fill:#262626;" transform="translate(54.543814 32.045859)scale(0.045 -0.045)">
      <defs>
       <path d="M 288 1472 
L 859 1522 
Q 900 1178 1048 958 
Q 1197 738 1509 602 
Q 1822 466 2213 466 
Q 2559 466 2825 569 
Q 3091 672 3220 851 
Q 3350 1031 3350 1244 
Q 3350 1459 3225 1620 
Q 3100 1781 2813 1891 
Q 2628 1963 1997 2114 
Q 1366 2266 1113 2400 
Q 784 2572 623 2826 
Q 463 3081 463 3397 
Q 463 3744 659 4045 
Q 856 4347 1234 4503 
Q 1613 4659 2075 4659 
Q 2584 4659 2973 4495 
Q 3363 4331 3572 4012 
Q 3781 3694 3797 3291 
L 3216 3247 
Q 3169 3681 2898 3903 
Q 2628 4125 2100 4125 
Q 1550 4125 1298 3923 
Q 1047 3722 1047 3438 
Q 1047 3191 1225 3031 
Q 1400 2872 2139 2705 
Q 2878 2538 3153 2413 
Q 3553 2228 3743 1945 
Q 3934 1663 3934 1294 
Q 3934 928 3725 604 
Q 3516 281 3123 101 
Q 2731 -78 2241 -78 
Q 1619 -78 1198 103 
Q 778 284 539 648 
Q 300 1013 288 1472 
z
" id="ArialMT-53" transform="scale(0.015625)"/>
       <path d="M 1650 503 
L 1731 6 
Q 1494 -44 1306 -44 
Q 1000 -44 831 53 
Q 663 150 594 308 
Q 525 466 525 972 
L 525 2881 
L 113 2881 
L 113 3319 
L 525 3319 
L 525 4141 
L 1084 4478 
L 1084 3319 
L 1650 3319 
L 1650 2881 
L 1084 2881 
L 1084 941 
Q 1084 700 1114 631 
Q 1144 563 1211 522 
Q 1278 481 1403 481 
Q 1497 481 1650 503 
z
" id="ArialMT-74" transform="scale(0.015625)"/>
       <path d="M 397 -1278 
L 334 -750 
Q 519 -800 656 -800 
Q 844 -800 956 -737 
Q 1069 -675 1141 -563 
Q 1194 -478 1313 -144 
Q 1328 -97 1363 -6 
L 103 3319 
L 709 3319 
L 1400 1397 
Q 1534 1031 1641 628 
Q 1738 1016 1872 1384 
L 2581 3319 
L 3144 3319 
L 1881 -56 
Q 1678 -603 1566 -809 
Q 1416 -1088 1222 -1217 
Q 1028 -1347 759 -1347 
Q 597 -1347 397 -1278 
z
" id="ArialMT-79" transform="scale(0.015625)"/>
      </defs>
      <use xlink:href="#ArialMT-53"/>
      <use x="66.699219" xlink:href="#ArialMT-70"/>
      <use x="122.314453" xlink:href="#ArialMT-61"/>
      <use x="177.929688" xlink:href="#ArialMT-72"/>
      <use x="211.230469" xlink:href="#ArialMT-73"/>
      <use x="261.230469" xlink:href="#ArialMT-69"/>
      <use x="283.447266" xlink:href="#ArialMT-74"/>
      <use x="311.230469" xlink:href="#ArialMT-79"/>
      <use x="361.230469" xlink:href="#ArialMT-20"/>
      <use x="389.013672" xlink:href="#ArialMT-35"/>
     </g>
    </g>
    <g id="line2d_21">
     <path d="M 41.943814 36.943828 
L 50.943814 36.943828 
" style="fill:none;stroke:#dd8452;stroke-linecap:round;stroke-width:1.5;"/>
    </g>
    <g id="line2d_22">
     <g>
      <use style="fill:#dd8452;stroke:#dd8452;" x="46.443814" xlink:href="#mbe997c4335" y="36.943828"/>
     </g>
    </g>
    <g id="text_19">
     <!-- Sparsity 15 -->
     <g style="fill:#262626;" transform="translate(54.543814 38.518828)scale(0.045 -0.045)">
      <use xlink:href="#ArialMT-53"/>
      <use x="66.699219" xlink:href="#ArialMT-70"/>
      <use x="122.314453" xlink:href="#ArialMT-61"/>
      <use x="177.929688" xlink:href="#ArialMT-72"/>
      <use x="211.230469" xlink:href="#ArialMT-73"/>
      <use x="261.230469" xlink:href="#ArialMT-69"/>
      <use x="283.447266" xlink:href="#ArialMT-74"/>
      <use x="311.230469" xlink:href="#ArialMT-79"/>
      <use x="361.230469" xlink:href="#ArialMT-20"/>
      <use x="389.013672" xlink:href="#ArialMT-31"/>
      <use x="444.628906" xlink:href="#ArialMT-35"/>
     </g>
    </g>
    <g id="line2d_23">
     <path d="M 41.943814 43.416797 
L 50.943814 43.416797 
" style="fill:none;stroke:#55a868;stroke-linecap:round;stroke-width:1.5;"/>
    </g>
    <g id="line2d_24">
     <g>
      <use style="fill:#55a868;stroke:#55a868;" x="46.443814" xlink:href="#m1e8978ace5" y="43.416797"/>
     </g>
    </g>
    <g id="text_20">
     <!-- Sparsity 25 -->
     <g style="fill:#262626;" transform="translate(54.543814 44.991797)scale(0.045 -0.045)">
      <use xlink:href="#ArialMT-53"/>
      <use x="66.699219" xlink:href="#ArialMT-70"/>
      <use x="122.314453" xlink:href="#ArialMT-61"/>
      <use x="177.929688" xlink:href="#ArialMT-72"/>
      <use x="211.230469" xlink:href="#ArialMT-73"/>
      <use x="261.230469" xlink:href="#ArialMT-69"/>
      <use x="283.447266" xlink:href="#ArialMT-74"/>
      <use x="311.230469" xlink:href="#ArialMT-79"/>
      <use x="361.230469" xlink:href="#ArialMT-20"/>
      <use x="389.013672" xlink:href="#ArialMT-32"/>
      <use x="444.628906" xlink:href="#ArialMT-35"/>
     </g>
    </g>
    <g id="line2d_25">
     <path d="M 41.943814 49.889766 
L 50.943814 49.889766 
" style="fill:none;stroke:#c44e52;stroke-linecap:round;stroke-width:1.5;"/>
    </g>
    <g id="line2d_26">
     <g>
      <use style="fill:#c44e52;stroke:#c44e52;" x="46.443814" xlink:href="#m033144faf3" y="49.889766"/>
     </g>
    </g>
    <g id="text_21">
     <!-- Sparsity 45 -->
     <g style="fill:#262626;" transform="translate(54.543814 51.464766)scale(0.045 -0.045)">
      <use xlink:href="#ArialMT-53"/>
      <use x="66.699219" xlink:href="#ArialMT-70"/>
      <use x="122.314453" xlink:href="#ArialMT-61"/>
      <use x="177.929688" xlink:href="#ArialMT-72"/>
      <use x="211.230469" xlink:href="#ArialMT-73"/>
      <use x="261.230469" xlink:href="#ArialMT-69"/>
      <use x="283.447266" xlink:href="#ArialMT-74"/>
      <use x="311.230469" xlink:href="#ArialMT-79"/>
      <use x="361.230469" xlink:href="#ArialMT-20"/>
      <use x="389.013672" xlink:href="#ArialMT-34"/>
      <use x="444.628906" xlink:href="#ArialMT-35"/>
     </g>
    </g>
   </g>
  </g>
 </g>
 <defs>
  <clipPath id="p1d9650e8c3">
   <rect height="82.472288" width="204.264304" x="37.893814" y="24.72"/>
  </clipPath>
 </defs>
</svg>
